<?xml version="1.0" encoding="UTF-8" standalone="no"?>
<svg
   viewBox="0 0 1002 419"
   version="1.1"
   id="svg441"
   sodipodi:docname="Justify Content Flexbox Guide.svg"
   inkscape:version="1.2.2 (b0a84865, 2022-12-01)"
   width="1002"
   height="419"
   xmlns:inkscape="http://www.inkscape.org/namespaces/inkscape"
   xmlns:sodipodi="http://sodipodi.sourceforge.net/DTD/sodipodi-0.dtd"
   xmlns="http://www.w3.org/2000/svg"
   xmlns:svg="http://www.w3.org/2000/svg"
   xmlns:rdf="http://www.w3.org/1999/02/22-rdf-syntax-ns#"
   xmlns:cc="http://creativecommons.org/ns#"
   xmlns:dc="http://purl.org/dc/elements/1.1/">
  <defs
     id="defs445" />
  <sodipodi:namedview
     id="namedview443"
     pagecolor="#505050"
     bordercolor="#eeeeee"
     borderopacity="1"
     inkscape:showpageshadow="0"
     inkscape:pageopacity="0"
     inkscape:pagecheckerboard="0"
     inkscape:deskcolor="#505050"
     showgrid="false"
     inkscape:lockguides="true"
     inkscape:zoom="0.53871852"
     inkscape:cx="482.62681"
     inkscape:cy="326.70122"
     inkscape:window-width="1397"
     inkscape:window-height="746"
     inkscape:window-x="0"
     inkscape:window-y="25"
     inkscape:window-maximized="0"
     inkscape:current-layer="svg441" />
  <title
     id="title132">justify-content</title>
  <g
     id="ffb4ddac-0772-419b-9e63-175d7a52bf5a"
     data-name="Layer 10">
    <path
       d="m 986.2534,380.28424 c 4.51,-7.56 5.64002,-17.81 -2,-18.89 a 27,27 0 0 0 2.43,-7.23 c 0.7,-3.77 0.26,-9 -3.82,-10.55 0.22,-0.61 0.42,-1.21 0.57,-1.8 1,-3.66 1.57,-13.28 -4.85,-12.83 -30.1,2.09 -60.21,4.18 -90.38,5 q -8,0.21 -16,0.26 c -21,-1.27 -42,-2.72 -62.79,-2.2 -2.59,0.06 -5.18,0.16 -7.76,0.25 l -1.82,-0.1 c -29.39,-1.73 -58.77,-3.9 -88.22,-4 a 669.59,669.59 0 0 0 -71.08,3.73 l -2.79,-0.19 c -31.71,-2.22 -63.38,-3.65 -95.1,-1 h -0.12 l -2.61,0.22 a 7.21,7.21 0 0 0 -1.58,0.35 q -5.82,-0.76 -11.61,-1.74 c -10.36,-1.76 -21.51,20.56 -13.3,26.27 -5.63,7.21 -8.23,18.56 0.66,21.23 0.84,0.25 1.69,0.48 2.54,0.7 l -0.09,0.1 c -5.59,6.75 -9.56,20.24 0.57,24.91 6.62,3.05 15.52,3.2 22.66,4.15 a 438.43,438.43 0 0 0 44.19,3.48 c 41.84,1.28 83.5,-2.41 125.17,-5.83 a 5.86,5.86 0 0 0 1.81,0.4 c 70,3.91 140.44,7.51 210.17,-2 17.4,1.11 34.8,2.42 52.18,3.81 6.28,0.5 11.45,-6.07 13.81,-11 2.04,-4.23 4.14,-12.34 -0.84,-15.5 z m -13.21,-33.72 h -0.11 a 4.61,4.61 0 0 1 1.7,-1.21 18.64,18.64 0 0 0 -1.59,1.21 z"
       fill="#995db5"
       id="path134" />
    <path
       d="m 978.1234,332.38424 c -35.59,-3.15 -71.32,-3.17 -107,-3.5 -35.68,-0.33 -71.11,-0.91 -106.68,-0.64 -35.73,0.27 -71.44,1.17 -107.18,1.14 -35.27,0 -70.5,0.52 -105.76,1.32 l -15.83,0.36 c -4.25,0.1 -9.19,-0.49 -13.34,0.41 -8.06,1.72 -6.68,11.93 -6.74,18 -0.1,9.7 -0.23,19.4 -0.3,29.1 -0.07,8.64 0.2,17.37 3.89,25.34 2.3,4.95 9,-2.69 7.29,-6.26 -4.38,-9.44 -3.65,-19.84 -3.54,-30 q 0.07,-7.79 0.16,-15.58 l 0.09,-8.77 c 0,-0.88 0,-1.77 0,-2.65 1.12,0 2.22,0.13 2.92,0.11 l 5.94,-0.13 9.89,-0.23 23.74,-0.54 c 14.5,-0.32 29,-0.69 43.5,-0.82 29.31,-0.27 58.62,0.1 87.93,-0.25 29.56,-0.35 59.1,-1.08 88.66,-1.08 29.89,0 59.78,0.56 89.67,0.81 33.05,0.27 66.12,0.51 99.06,3.43 4.07,0.4 8.25,-9.16 3.63,-9.57 z m -454.9,4.73 c 0,-0.78 0,-0.8 0.05,-0.06 z"
       opacity="0.2"
       id="path136" />
    <path
       d="m 984.7034,244.04424 a 7,7 0 0 1 -1.28,-1.54 c 2.34,-3.88 4.48,-9.47 2.85,-13.69 -0.94,-2.44 -0.73,-4.43 -0.59,-7 a 42.4,42.4 0 0 0 -0.16,-6.29 c 0,-0.21 0,-0.42 0,-0.63 v 0 c -0.1,-1 -0.22,-2 -0.37,-3 a 5.73,5.73 0 0 0 -0.81,-2.3 18.55,18.55 0 0 0 1.39,-7.32 c -0.09,-3.21 -1.67,-7.69 -5.65,-7.71 -117.57,-0.6 -235.11,-4.82 -352.68,-4 q -50.49,0.36 -100.94,2.15 c -7,0.27 -12.34,6.6 -14.67,12.84 -1.19,3.21 -2.32,11.46 1.52,13.91 a 21.33,21.33 0 0 0 -1.43,7 q 0,6.92 -0.1,13.82 l -0.06,6.91 c 0,1 0,2 0,3 0,-1.15 -0.08,-1 -0.26,0.58 -0.94,4.24 -0.7,9.58 2.23,13 2.61,3.06 6.71,3.75 10.51,4.11 a 261.54,261.54 0 0 0 38.68,0.59 5.18,5.18 0 0 0 4.85,3.74 c 54.74,2.74 109.41,-2 164.11,-3.62 26.62,-0.77 53.3,-0.78 79.87,1.26 13.7,1.05 27.24,3 41,2.93 13.76,-0.07 27.54,-1.24 41.33,-1.37 13.46,-0.13 26.78,-0.52 40.22,-1.42 12.65,-0.85 25.19,-1.1 37.78,0.73 6.14,0.89 11.6,-6.38 13.81,-11 2.43,-5.12 3.61,-11.59 -1.15,-15.68 z"
       fill="#995db5"
       id="path138" />
    <path
       d="m 988.4434,104.62424 c 0.26,0.36 -1.24,-1.94 -1.56,-2.56 a 0.69,0.69 0 0 1 0.05,-0.13 c 1.38,-3.22 2,-8.68 -0.05,-12 a 19.46,19.46 0 0 0 1.71,-8.06 c -0.09,-3 -1.41,-5.77 -3.7,-7 2.3,-4.71 3.32,-10 1.89,-14.78 -1.86,-6.22 -7.92,-8.71 -13.91,-9 -15.38,-0.87 -31.16,0.33 -46.58,0.46 q -94.08,0.76 -188.15,0.14 c -69.92,-0.37 -139.84,-1.1 -209.76,-1.83 -7,-0.07 -12.43,6.82 -14.67,12.84 -1.33,3.55 -2.41,11.87 2,14.07 a 29,29 0 0 0 -2.34,5.09 c -2.39,7 -1.24,13.6 3.57,18.6 -5.3,4.7 -8.85,12.49 -6.63,18.53 4.59,12.49 20.78,14.41 32.51,14.38 15.66,0 31.33,-0.64 47,-1 30.87,-0.64 61.75,-1.39 92.63,-1.79 30.88,-0.4 61.8,-0.27 92.69,0.81 31.5,1.1 62.89,2.24 94.4,0.54 34.8,-1.88 69.65,-5.38 104.49,-2.26 9.83,0.89 20.41002,-16.91 14.41,-25.05 z m -1.58,-2.59 c -0.06,-0.14 -0.06,-0.17 0.05,-0.06 z"
       fill="#995db5"
       id="path140" />
    <path
       d="m 481.07,364 c -4.31,-11.1 -5.37,-22.25 -2.55,-33.84 0.68,-2.83 0.47,-6.75 -1.57,-9.11 0.56,-4.35 0,-10.26 -5.32,-10.36 -39.5,-0.74 -79,0.38 -118.49,2 -19.55,-2 -39.07,-4.27 -58.73,-4.88 -29.18,-0.91 -58.33,0.94 -87.46,2.41 -29.51,1.48 -58.91,1.71 -88.45,1 L 20.44,309 c -7,-0.16 -12.45,6.88 -14.67,12.84 -1.16,3.1 -2.11,9.6 0.41,12.78 -0.21,0.73 -0.41,1.46 -0.55,2.18 -0.94,4.62 0.13,9.37 0.69,14 0.56,4.63 1.12,9.31 1.69,14 0,0.11 -0.07,0.23 -0.1,0.34 a 46.4,46.4 0 0 0 0,23.72 c 1,3.83 4.24,5.21 7.87,4.54 28.69,-5.25 58,-4.61 87,-4.59 l 90.9,0.05 89.91,0.06 c 14.5,0 29,-0.08 43.5,0.18 15.06,0.27 30,1.79 45,2.32 16,0.56 32.06,0.06 48.06,0.26 16,0.2 32.43,-0.42 47.92,-5.22 7.73,-2.46 16.24,-14.17 13,-22.46 z m -466.35,-17.82 -0.26,0.15 -0.57,-0.21 z"
       fill="#995db5"
       id="path142" />
    <path
       d="m 985.0734,54.04424 a 41,41 0 0 0 -26.43,-2 c -1.58,0.4 -3,2.32 -3.84,4.34 -7.39,-0.51 -14.79,-1.45 -22,-1.78 -17.43,-0.79 -34.9,-0.66 -52.35,-0.73 l -107.2,-0.49 -215.32,-0.95 c -9.94,0 -20,-0.45 -29.9,-0.13 -8.19,0.26 -10,7.37 -10.6,14.27 a 282,282 0 0 0 0.9,60.08 c 0.75,6.2 8.06,-0.16 7.57,-4.2 a 279.4,279.4 0 0 1 -1.61,-51.07 c 0.07,-1 0.89,-6.35 1.12,-9.47 v 0 c 0.92,0.49 2.91,0 4,0 h 7 l 25.92,0.12 102.68,0.46 206.94,0.93 c 18.76,0.08 37.56,-0.1 56.32,0.72 17.5,0.75 36.28,5 53.29,-0.89 2.26,-0.73 7.53,-7.53 3.51,-9.21 z"
       opacity="0.2"
       id="path144" />
    <g
       opacity="0.2"
       id="g148">
      <path
         d="m 17,378.06 a 407.86,407.86 0 0 1 -2,-48.93 c 0.05,-2.28 -0.63,-6.87 1.14,-8.05 2.43,-1.62 9.11,-0.3 11.91,-0.27 q 12.44,0.13 24.86,0.31 c 33.81,0.49 67.61,1.16 101.42,1.69 q 100.67,1.59 201.32,1.29 57.3,-0.17 114.6,-0.94 c 4.08,-0.05 8.07,-9.66 3.61,-9.6 q -106.62,1.43 -213.25,0.77 c -71.34,-0.44 -142.66,-2 -214,-2.95 -8.82,-0.11 -18.46,-1.3 -27.2,0 -7,1 -10.77,7.27 -11.58,13.84 -1.1,8.93 -0.55,18.38 -0.31,27.35 0.27,9.93 0.93,19.84 1.92,29.72 0.62,6.2 8,-0.16 7.57,-4.2 z"
         id="path146" />
    </g>
    <path
       d="m 476.07,180.17 c -24.48,-3.39 -49.85,-1.56 -74.5,-1.42 l -61.82,0.34 q -7.39,-0.08 -14.8,0.08 a 12.77,12.77 0 0 0 -7.45,2.75 q -4.12,-0.27 -8.23,-0.57 c -23.1,-1.62 -46.19,-2.89 -69.34,-3.45 -46.75,-1.14 -93.51,-0.18 -140.27,0.43 -26.53,0.35 -53.07,0.58 -79.6,0.28 -7,-0.07 -12.43,6.83 -14.67,12.84 -1,2.56 -1.79,7.6 -0.54,11 -2.23,3.38 -4,7.68 -3.63,11.54 a 206.35,206.35 0 0 0 3.35,22.18 25.89,25.89 0 0 0 -1.12,4.06 c -1.1,6.08 0,13.21 6.15,15.93 2.69,3.71 8.63,2 12,-0.78 a 14.86,14.86 0 0 0 2.77,1.62 c 5.5,2.41 11.16,1.86 17,1.15 4.05,-0.5 8.1,-1.05 12.15,-1.54 a 5,5 0 0 0 4.41,2.7 371.07,371.07 0 0 0 47,-0.86 c 3.36,0.94 7.93,-0.52 11,-1.08 3.76,-0.67 7.51,-1.37 11.27,-2 l 10.9,-0.14 c 26.39,-0.26 52.78,0.05 79.16,0.6 52.71,1.09 105.4,3.14 158.12,3.48 29.76,0.2 59.52,-0.17 89.26,-1.49 7.06,-0.31 12.33,-6.56 14.67,-12.84 1.68,-4.52 2.31,-11.45 -2.33,-13.89 0,-0.95 0,-1.9 0,-2.83 0,-0.61 -0.06,-1.21 -0.11,-1.8 a 25.22,25.22 0 0 0 3.57,-15.61 c -0.45,-3.44 -1.76,-5.84 -3.83,-6.89 a 36.21,36.21 0 0 0 5.06,-16 c 0.33,-3.67 -1.93,-7.28 -5.6,-7.79 z"
       fill="#995db5"
       id="path150" />
    <g
       opacity="0.2"
       id="g154">
      <path
         d="m 14.64,244.25 c -2,-14.49 -1.59,-29.15 -1.29,-43.73 0.05,-2.56 -0.95,-8 1.8,-9.39 2.17,-1.08 7.31,-0.28 9.65,-0.29 l 21.82,-0.08 85.31,-0.33 q 43.89,-0.17 87.77,-0.33 88.14,-0.28 176.27,-0.18 c 24.17,0.06 48.39,-0.1 72.56,0.67 4.09,0.13 8.16,-9.46 3.62,-9.6 -54.95,-1.76 -110.06,-0.78 -165,-0.7 q -89.76,0.14 -179.52,0.56 l -99.2,0.39 c -5.85,0 -12.67,-0.84 -17.36,3.45 -5.17,4.73 -5.07,11.62 -5.25,18.08 -0.32,16 -0.7,31.87 1.53,47.74 0.35,2.53 3.41,1.55 4.67,0.53 a 7.5,7.5 0 0 0 2.62,-6.79 z"
         id="path152" />
    </g>
    <path
       d="m 481.32,108.09 a 49.18,49.18 0 0 0 -5,-16.81 97.41,97.41 0 0 0 2.95,-35.13 c -0.52,-4.71 -2.93,-8.71 -8.28,-7.49 -6.2,1.42 -12.43,2.56 -18.68,3.35 a 5.49,5.49 0 0 0 -2.38,-0.62 Q 284.66,45.27 119.23,47.89 72.42,48.64 25.61,50.1 a 12,12 0 0 0 -4.09,0.88 c -2,-1.21 -4.61,-1.23 -7.53,0.34 C 8.12,54.48 2.87,62.86 3.38,69.69 q 1.23,16.61 2.48,33.19 a 17,17 0 0 0 -0.71,5.35 q 0.27,7.13 0.53,14.25 c 0.11,3.12 1.66,7.81 5.65,7.72 59.6,-1.38 119.45,-4.38 179.06,-2.28 14.46,0.52 28.87,1.11 43.35,1 15,-0.1 30.1,-0.41 45.13,0.26 28.87,1.28 57.64,2.89 86.55,2.91 33.36,0 66.7,-1.35 99.93,-4.29 8.5,-0.73 17.11,-10.8 15.97,-19.71 z M 446.76,85.92 v 0 c 0,0 0.01,-0.01 0,0 z M 179.08,99.75 q 4.28,0.21 8.56,0.39 c -2.88,-0.06 -5.75,-0.11 -8.63,-0.14 a 1.82,1.82 0 0 0 0.07,-0.25 z"
       fill="#995db5"
       id="path156" />
    <path
       d="m 472,52.6 c -35.86,0.39 -71.73,0.71 -107.59,0.15 -17.93,-0.28 -35.85,-0.78 -53.76,-1.6 -17.4,-0.8 -34.79,-2.32 -52.21,-2.68 -17.42,-0.36 -35,0.92 -52.47,1 -17.47,0.08 -35,2.36 -52.61,2.58 -17.61,0.22 -35.4,-1.16 -53.08,-1.41 Q 74.19,50.28 48.11,50.86 c -10.16,0.22 -20.35,0.44 -30.5,1 -7.79,0.42 -11,5.21 -11.69,12.7 a 308.7,308.7 0 0 0 0.56,59.33 c 0.66,6.2 8,-0.16 7.57,-4.21 a 306.62,306.62 0 0 1 -1.27,-49.6 c 0.11,-2 0.24,-3.89 0.39,-5.84 a 24,24 0 0 1 0.1,-2.51 L 14,61.47 c 1.55,-0.58 4.23,-0.18 5.9,-0.24 2.62,-0.1 5.25,-0.2 7.87,-0.28 q 12.3,-0.42 24.6,-0.62 25.11,-0.42 50.21,0 c 16.67,0.3 33.44,1.7 50.1,1.26 16.66,-0.44 33.07,-2.42 49.68,-2.52 16.61,-0.1 33,-1.24 49.53,-1.07 17.08,0.18 34.12,1.71 51.17,2.54 17.05,0.83 33.84,1.35 50.76,1.67 38.19,0.72 76.38,0.38 114.57,0 4.12,-0.05 8.11,-9.66 3.61,-9.61 z"
       opacity="0.2"
       id="path158" />
    <path
       d="m 115.51,90.24 c -0.36,-6.81 -2.63,-13.55 -1.78,-20.38 1,-7.79 -7.76,-3 -8.41,2.14 -0.95,7.64 1,14.53 1.49,22.1 a 93.28,93.28 0 0 1 0,11.34 c -0.09,1.58 -0.21,3.15 -0.34,4.73 -0.06,0.75 -0.13,1.5 -0.2,2.25 -2.74,0 -6.1,-0.85 -8.14,-1 -3.54,-0.35 -7.08,-0.68 -10.63,-1 q -11.12,-0.86 -22.27,-1.14 a 439.21,439.21 0 0 0 -44.58,1.15 c -2.83,0.21 -4.91,2.56 -5.86,5.13 -0.54,1.45 -1.12,6.06 1.74,5.85 A 444.46,444.46 0 0 1 94,122.35 c 4.62,0.46 11.22,2.09 15.43,-0.57 4.52,-2.86 5,-8.1 5.39,-12.91 a 130.27,130.27 0 0 0 0.69,-18.63 z"
       opacity="0.15"
       id="path160" />
    <path
       d="m 197.14,71.39 c -0.5,-7.09 -9,0.19 -8.65,4.81 0.55,7.8 0.91,15.61 1,23.43 0.06,3.67 -0.11,7.25 -0.3,10.89 l -0.55,0.08 c -1.9,-0.32 -4.76,0.64 -6.71,0.85 a 189,189 0 0 1 -45,-0.77 2.87,2.87 0 0 0 -2.35,-0.53 l -1.7,0.22 c -3.65,0.48 -8.35,10.11 -3.08,10.88 a 195.76,195.76 0 0 0 30.78,2.17 c 9.12,-0.1 19.62,0 28.49,-2.42 7.88,-2.11 8.87,-12 9.11,-18.78 a 291.09,291.09 0 0 0 -1.04,-30.83 z"
       opacity="0.15"
       id="path162" />
    <path
       d="m 322,82.85 c -0.16,-4.26 0.89,-12.47 -2.82,-15.42 -0.8,-0.64 -2.35,-0.17 -3.08,0.25 l -0.31,0.17 a 8.73,8.73 0 0 0 -4.24,7.35 3.18,3.18 0 0 0 1.5,2.77 43.58,43.58 0 0 0 0.1,5.75 q 0.27,4.43 0.32,8.85 c 0.05,5.05 0.51,10.92 -0.58,15.87 a 2.88,2.88 0 0 0 -0.11,1 1.32,1.32 0 0 0 -0.42,0.2 c -1,0.63 -3.06,0.48 -4.22,0.58 -2.56,0.21 -5.13,0.35 -7.69,0.46 -5.49,0.21 -11,0.19 -16.46,0 -21.17,-0.86 -42.21,-0.91 -63.4,-0.76 -4.67,0 -9.24,11 -4.12,11 13.65,-0.1 27.31,-0.41 41,-0.23 14,0.18 27.8,1.64 41.77,0.88 5,-0.28 10.88,0 15.24,-2.83 4.93,-3.15 6.56,-8.74 7,-14.24 A 171.56,171.56 0 0 0 322,82.85 Z"
       opacity="0.15"
       id="path164" />
    <path
       d="m 207.38,68.35 c 0.43,-2 1.33,-4.74 6.1,-5.75 1.18,-0.25 90,-2.66 99.58,2.16 2.93,1.48 2.86,5.56 2.72,7.89 -0.09,1.51 0.18,33 -0.17,36 -0.15,1.37 -0.6,4.81 -2.67,5.92 -2.76,1.49 -91.54,1.56 -99.36,0.81 -2.85,-0.27 -5.64,-5.68 -5.86,-8.16 -0.22,-2.48 -0.72,-36.89 -0.34,-38.87 z"
       fill="#f7941f"
       id="path166" />
    <path
       d="m 124.8,112.67 c 0.2,1 3,2.6 5.29,3.12 0.55,0.12 53.73,1.95 57.55,-0.4 3.82,-2.35 4.05,-8 4,-8.77 l -0.57,-38.79 c 0,0 0.57,-4 -4.54,-4.87 -5.36,-0.9 -51.35,-0.37 -55.08,-0.65 -6.81,-0.5 -6.62,3.91 -6.73,5.19 -0.11,1.28 -0.12,44.15 0.08,45.17 z"
       fill="#f7941f"
       id="path168" />
    <path
       d="m 108.3,67.2 c -0.24,-1 -1.48,-3.85 -4.14,-4.37 -0.66,-0.13 -16.92,-1.06 -21.62,-1 0,0 -66,0.28 -67.58,0.64 -1.25,0.28 -4.78,1.17 -4.73,7.06 l -0.69,38.16 c 0.19,1.56 1.36,7.86 5.23,7.9 4.6,0 87.82,0.92 89.1,0.58 a 5.22,5.22 0 0 0 4,-4.52 c 0.13,-1.29 0.67,-43.43 0.43,-44.45 z"
       fill="#f7941f"
       id="path170" />
    <path
       d="M 106.21,63.72 C 93.7,62 81.08,61.64 68.47,61.39 56.15,61.14 43.93,62.51 31.62,62.68 c -2.72,0 -5.45,0.1 -8.18,0.11 -2,0 -4.63,-0.63 -6.59,-0.26 -3.27,0.63 -5.07,4.07 -5.32,7.14 -0.38,4.72 0.38,9.74 0.72,14.62 a 50,50 0 0 0 -0.73,25.76 c 1,4.24 6.08,-1.41 6.28,-3.48 0.66,-6.75 1.09,-13.5 1.11,-20.28 0,-1.53 0,-3.05 0,-4.58 A 37,37 0 0 1 23.8,72.4 5.38,5.38 0 0 0 24.41,71 c 3.15,0 6.3,-0.07 9.44,-0.13 7.55,-0.15 15,-1.12 22.57,-1.28 A 293.78,293.78 0 0 1 103.11,72 c 3.44,0.44 7.1,-7.72 3.1,-8.28 z"
       fill="#ffffff"
       opacity="0.25"
       id="path172" />
    <path
       d="m 190.08,65.25 c -4,-1.59 -9.74,-1.06 -14,-1.31 -5.25,-0.32 -10.51,-0.56 -15.77,-0.75 a 124,124 0 0 0 -15.78,0.06 c -2.08,0.2 -4.14,0.57 -6.21,0.81 -2.4,0.27 -5.09,-0.35 -7.39,0.06 -2.69,0.48 -4.27,2.81 -4.89,5.34 -1.19,4.82 -0.71,10.46 -1,15.42 -0.53,9.89 -0.94,19.15 1.8,28.8 1.08,3.83 5.33,-0.68 6,-2.42 2.1,-5.7 0.75,-12.11 0.89,-18.06 a 85.54,85.54 0 0 1 3,-21 c 1.24,-0.17 2.48,-0.36 3.72,-0.51 a 95.38,95.38 0 0 1 14.83,-0.28 q 7.41,0.24 14.79,0.64 c 2.63,0.15 5.25,0.31 7.88,0.49 1.91,0.12 4.82,-0.16 6.87,0.31 0.25,0.76 0.89,1.13 2.06,0.73 l 0.21,-0.07 a 6.48,6.48 0 0 0 4,-5.85 V 67.4 c 0.02,-0.68 -0.33,-1.88 -1.01,-2.15 z M 184.73,71 v 0.21 -0.1 z"
       fill="#ffffff"
       opacity="0.25"
       id="path174" />
    <path
       d="m 192.64,100.55 q -0.13,-13.2 -0.26,-26.4 c 0,-0.86 0,-1.74 0,-2.6 -0.08,-1.69 0.43,-5.21 -0.28,-6.62 -1.65,-3.26 -8.48,-3.29 -11.61,-3.53 -9.15,-0.7 -18.41,-0.69 -27.58,-0.53 -5.13,0.09 -10.25,0.33 -15.38,0.37 -4,0 -8.87,-0.94 -12,2.21 -1.78,1.8 -1.94,3.86 -1.94,6.22 0,4.58 0.1,9.17 0.16,13.75 0.12,9.15 0.44,18.32 0.34,27.47 a 0.62,0.62 0 0 0 0,0.28 c 0.66,6.91 9.8,5.68 14.75,5.77 9,0.16 18.05,0.26 27.08,0.37 2.32,0 4.64,0 7,0.08 4.6,0.09 10.75,1 15.14,-0.78 5.45,-2.24 4.63,-11.13 4.58,-16.06 z m -2,6.07 c -0.14,2 -0.69,5.46 -2.06,7 -1.72,2 -5.39,1.63 -7.79,1.69 -4,0.11 -7.91,0 -11.86,-0.07 l -20.17,-0.2 -13.42,-0.14 c -3.32,0 -9,0.71 -9.78,-4 v 0 c 0.15,-13.91 -0.18,-27.86 0.31,-41.76 0.13,-3.78 2.12,-5.65 6.36,-5.77 4.24,-0.12 8.37,0 12.55,-0.06 7.7,-0.19 15.35,-0.43 23.05,-0.14 4.22,0.16 8.48,0.13 12.69,0.44 2.09,0.16 6.69,0.23 8.42,1.56 1.35,1 1.12,4.32 1.24,6.25 0.35,6 0.16,12 0.24,18 0.03,5.74 0.58,11.58 0.17,17.2 z"
       fill="#1e1e1e"
       id="path176" />
    <path
       d="m 109.23,100.88 q 0,-10.42 0,-20.84 c 0,-4.13 0.36,-8.54 -0.16,-12.66 a 0.53,0.53 0 0 0 0,-0.18 c -0.7,-5.67 -4.24,-5.42 -9.19,-5.73 C 94,61.11 88,60.82 82.12,60.8 c -10.22,0 -20.45,0 -30.67,0 -9.34,0 -18.66,0 -28,0.2 -4,0.1 -12.28,-0.92 -13.94,3.88 -0.95,2.74 -0.39,7 -0.45,9.89 -0.2,10.65 -1,21.47 -0.63,32.12 0.15,4.11 1,8.88 5.47,9.73 4.47,0.85 9.63,0.22 14.2,0.27 21.38,0.25 42.82,1 64.2,0.51 3.83,-0.08 14.53,1.53 16.4,-3.28 1.35,-3.51 0.54,-9.47 0.53,-13.24 z M 107.61,77.3 q -0.09,8.51 -0.21,17 c -0.06,4.14 0,8.3 -0.18,12.43 a 21.5,21.5 0 0 1 -0.43,5.22 c -1.11,3.72 -4.79,2.87 -7.91,3 -19.63,0.72 -39.34,0 -59,-0.23 l -14,-0.14 H 22.3 c -4,0 -9.13,1.2 -10.83,-3.19 -1.23,-3.18 -0.79,-6.7 -0.75,-10 0.08,-5.23 0.18,-10.46 0.27,-15.69 0.08,-4.72 0.17,-9.44 0.23,-14.15 v -2.24 c 0,-2 -0.21,-3.24 1.44,-4.64 1.44,-1.23 3.09,-1.22 4.85,-1.33 8.46,-0.52 17,-0.42 25.46,-0.43 h 34.85 c 3.55,0 7.09,0 10.64,0.11 3.78,0.11 7.56,0.24 11.33,0.44 3.3,0.17 7,0 7.74,4.05 a 1,1 0 0 0 0,0.1 c 0.52,3.04 0.11,6.53 0.08,9.69 z"
       fill="#1e1e1e"
       id="path178" />
    <path
       d="m 312.67,65.51 c -21.24,-4.61 -43.42,-3.77 -65,-2 l -4.89,0.38 a 1.89,1.89 0 0 0 -1.45,-0.85 c -5.64,-0.76 -13.25,-1.48 -19.52,0.2 -4.92,-0.23 -9.33,0.62 -11.74,5.48 -1,2 -1.3,4.63 -0.36,6.44 a 66.72,66.72 0 0 0 -2.22,17 c -0.06,6.31 -0.55,14.53 3.91,19.57 2.36,2.67 5.56,-2.16 5.94,-4.2 1.65,-8.68 -2.27,-17.89 -1.83,-26.75 0,-0.79 0.09,-2.25 0.24,-3.74 1.56,-0.35 3.12,-1 4.57,-1.38 3.2,-0.88 6.45,-1.58 9.72,-2.15 13,-2.28 26.33,-2.76 39.48,-3 13.43,-0.27 26.84,0.41 40,3.27 3.4,0.69 7.17,-7.4 3.15,-8.27 z"
       fill="#ffffff"
       opacity="0.25"
       id="path180" />
    <path
       d="m 316.24,67.75 c -1.82,-5.19 -6.5,-5.1 -11.27,-5.65 -12.05,-1.41 -24.46,-0.9 -36.59,-0.9 -13.85,0 -27.73,-0.34 -41.58,0.14 -5.05,0.18 -11.36,-0.4 -16.25,1 -5.37,1.53 -3.53,7.36 -3.91,11.52 a 0.66,0.66 0 0 0 0,0.14 c -1.19,8 -0.16,16.87 0,25 0.09,4.72 -1,12.21 3.2,15.76 3.28,2.78 9.82,1.63 13.87,1.86 19.1,1.09 38.41,0.11 57.54,-0.13 9.45,-0.11 19.56,0.83 28.93,-0.38 5.61,-0.72 6.59,-2.76 6.6,-7.93 0,-9.88 0.1,-19.77 0.07,-29.65 -0.01,-3.43 0.53,-7.53 -0.61,-10.78 z m -4.75,45.79 c -3.19,1.25 -7.9,0.4 -11.25,0.41 -4.74,0 -9.49,0.1 -14.23,0.15 -17.82,0.21 -35.63,0.59 -53.45,0.46 -3.71,0 -7.41,-0.15 -11.12,-0.32 -4.54,-0.2 -9.52,1 -11.88,-3.77 -1.62,-3.29 -1,-7.68 -1.13,-11.26 -0.3,-8 -1.61,-17.07 -0.39,-25 a 0.58,0.58 0 0 0 0.05,-0.14 c 0.23,-1.62 0,-3.25 0.13,-4.88 0.28,-3.82 2.21,-5 5.51,-5.21 4.68,-0.3 9.37,-0.53 14.06,-0.65 11.5,-0.3 23,-0.06 34.52,0 9.22,0 18.42,0.06 27.64,0.26 6.51,0.14 13,0.13 19.42,1.33 5.43,1 5.32,6 5.31,10.49 0,9.15 0.05,18.31 0,27.46 -0.08,3.58 0.79,9.13 -3.19,10.67 z"
       fill="#1e1e1e"
       id="path182" />
    <path
       d="m 984.6234,93.99424 a 172.27,172.27 0 0 0 -2.17,-20 c -0.42,-2.88 -3.88,-1.77 -5.34,-0.6 a 8.58,8.58 0 0 0 -3,7.76 c 1.09,7.39 2.07,14.83 1.86,22.31 a 83.31,83.31 0 0 1 -1.24,9.27 c -2.93,0 -6.16,-0.47 -8.23,-0.49 l -11.87,-0.1 -24.7,-0.22 -23.75,-0.21 c -8,-0.08 -17.28,1.19 -24.94,-1.1 -4.29,-1.29 -9.45,9.38 -4.12,11 6.53,2 14.21,1 21,1.06 l 20.77,0.19 42.54,0.38 c 5.4,0 12.73,1.47 17.72,-1 a 9.7,9.7 0 0 0 4.71,-5.5 c 0.83,-2.34 0.06,-3.45 -0.32,-5.59 -0.31,-1.73 0.55,-4.74 0.78,-7.12 a 77.77,77.77 0 0 0 0.3,-10.04 z"
       opacity="0.15"
       id="path184" />
    <path
       d="m 787.9334,102.37424 c -0.26,-9.9 -0.61,-19.8 -0.81,-29.7 0,-2.64 -2.16,-3.65 -4.41,-2.55 -2.47,1.21 -4.3,4.65 -4.24,7.35 0.15,7.64 0.19,15.29 0.47,22.93 0.14,3.8 0.25,7.48 0.17,11.27 l -0.21,0.88 a 2.93,2.93 0 0 0 -1,0.31 c -1.54,-0.29 -3.93,0.55 -5.47,0.7 -15.76,1.54 -31.71,-0.46 -47.35,-2.4 -4.6,-0.57 -9.45,10.32 -4.13,11 9.9,1.22 19.81,2.41 29.78,2.78 a 143.17,143.17 0 0 0 14.94,-0.17 c 4.23,-0.28 9.2,-0.26 13.15,-1.9 7.61,-3.21 9.26,-13.18 9.11,-20.5 z"
       opacity="0.15"
       id="path186" />
    <path
       d="m 623.3434,67.89424 c -0.47,-2.86 -3.86,-1.79 -5.34,-0.6 a 8.52,8.52 0 0 0 -3,7.76 169.15,169.15 0 0 1 2.16,33 c 0,1.3 -0.09,2.6 -0.17,3.91 a 7.09,7.09 0 0 1 -0.13,0.91 6.72,6.72 0 0 1 -1,0 c -1.32,-0.07 -2.64,-0.18 -4,-0.27 q -8.43,-0.58 -16.85,-1 -32.72,-1.61 -65.49,-0.85 c -4.67,0.1 -9.21,11.09 -4.13,11 q 40.69,-0.91 81.35,1.78 c 5,0.33 10.27,1.53 14.2,-2.26 3.69,-3.55 4.3,-8.31 4.61,-13.15 a 178.67,178.67 0 0 0 -2.21,-40.23 z"
       opacity="0.15"
       id="path188" />
    <path
       d="m 873.3934,64.42424 c 8.48,-3.31 80,-0.75 88,-0.62 3.48,0.06 13.33,1.23 14.35,2.12 2.48,2.16 2.86,5.57 2.73,7.9 -0.09,1.51 1.17,33 0.83,36 -0.16,1.36 -1.06,4.29 -3.11,5.44 -3.74,2.1 -99,1.63 -101,0.71 -2,-0.92 -4.55,-5.1 -4.77,-7.58 -0.22,-2.48 -1.57,-42.18 2.97,-43.97 z"
       fill="#f7941f"
       id="path190" />
    <path
       d="m 714.6634,113.31424 c 0.2,1 3.08,3.12 5.33,3.64 0.56,0.13 56.51,0.92 59.26,-0.4 3.3,-1.58 3.34,-8 3.3,-8.77 0,0 -1.73,-38.29 -1.89,-39.86 -0.07,-0.7 -1.12,-3.08 -2.09,-3.67 -1.76,-1.08 -53.48,-0.49 -57.21,-0.77 -6.81,-0.51 -6.62,3.9 -6.73,5.18 -0.11,1.28 -0.17,43.63 0.03,44.65 z"
       fill="#f7941f"
       id="path192" />
    <path
       d="m 619.2434,67.36424 a 6.45,6.45 0 0 0 -4.64,-3.87 c -0.66,-0.13 -87.59,-0.24 -89.2,0.11 a 16.79,16.79 0 0 0 -4.33,2.47 c -1.38,1.14 -1.14,42.75 -1.14,42.75 0.19,1.57 2.51,7.21 3.65,7.8 2.09,1.07 92,0.67 93.07,-0.05 1.64,-1.1 1.84,-6.3 2,-7.55 0,0 0.83,-40.64 0.59,-41.66 z"
       fill="#f7941f"
       id="path194" />
    <path
       d="m 614.8234,65.72424 -1,-0.81 c -0.84,-0.69 -1.88,-0.42 -2.82,0.35 -20.36,-1.63 -40.92,-1.42 -61.32,-1.56 -5,0 -9.9,0 -14.85,0.24 -2.23,0.11 -4.63,0 -6.68,0.74 -0.14,-0.32 -0.28,-0.64 -0.43,-1 -1.59,-3.33 -5.69,2.77 -5.95,4.2 a 74.33,74.33 0 0 0 0,26.44 1.68,1.68 0 0 0 0.4,0.86 70.06,70.06 0 0 0 1,18 c 0.39,2.16 2.86,1.34 4,0.45 a 6.27,6.27 0 0 0 2.24,-5.81 c -1.58,-8.6 -0.66,-16.53 0.38,-25.1 a 46.09,46.09 0 0 0 0.29,-10.26 34.82,34.82 0 0 0 4.4,-0.42 c 8.12,-0.28 16.26,-0.08 24.38,0 17.37,0.22 34.79,0.1 52.1,1.65 3.32,0.33 6.55,-5.76 3.86,-7.97 z"
       fill="#ffffff"
       opacity="0.25"
       id="path196" />
    <path
       d="m 772.1334,63.57424 q -9.18,-0.67 -18.41,-0.64 a 241.16,241.16 0 0 0 -27,1.7 11,11 0 0 0 -4.94,0.64 l -3.78,0.54 c -2.56,0.39 -4.55,4.41 -3.89,6.73 1.7,5.94 -0.35,11.83 2.46,17.61 a 1.92,1.92 0 0 0 0.22,0.35 c -0.66,7.52 -2.8,16.64 0.43,23.1 0.37,0.75 1.37,0.73 2,0.65 l 0.41,-0.05 c 1.57,-0.19 3.21,-2.4 3.62,-3.78 0,-0.12 0.07,-0.23 0.1,-0.35 0.66,-2.21 0.14,-3.45 -0.81,-3.89 -0.72,-2.22 -0.18,-5.61 -0.09,-7.77 0.14,-3.41 0.54,-6.81 0.77,-10.21 a 67.26,67.26 0 0 0 0.06,-9.09 35.17,35.17 0 0 1 -0.29,-6 c 11.09,0.11 22.12,0.79 33.17,1.84 6.34,0.6 22.25,2.68 23,-7.19 0.42,-4.37 -3.8,-3.95 -7.03,-4.19 z"
       fill="#ffffff"
       opacity="0.25"
       id="path198" />
    <path
       d="m 975.9334,67.14424 -2.5,-1.23 a 2.72,2.72 0 0 0 -2.87,0.52 641.17,641.17 0 0 0 -77.52,-3.55 c -5,0.07 -11.66,-0.71 -16.4,1.26 -4.22,1.76 -5.22,6.29 -5.56,10.37 -1.09,12.7 -1.55,25.7 1.85,38.08 1.2,4.37 7.14,-2.11 6.25,-5.36 -2.86,-10.41 -2.7,-21.07 -2,-31.75 0.24,-3.65 -0.79,-3.83 3,-4.08 2.91,-0.2 5.83,-0.22 8.75,-0.27 q 8.33,-0.15 16.66,-0.07 a 642.59,642.59 0 0 1 66.5,4.1 c 2.91,0.33 7.03,-6.43 3.84,-8.02 z"
       fill="#ffffff"
       opacity="0.25"
       id="path200" />
    <path
       d="m 783.4034,102.47424 c -0.34,-8.85 -0.7,-17.71 -1,-26.57 -0.1,-3 0.41,-7.3 -0.69,-9.89 -1.51,-3.54 -8,-3.29 -11.18,-3.46 q -13.86,-0.76 -27.72,-0.52 c -5.13,0.09 -10.25,0.33 -15.37,0.38 -4,0 -8.88,-0.95 -12,2.2 -1.79,1.81 -1.94,3.86 -1.94,6.23 0,4.58 0.09,9.16 0.15,13.74 0.12,9.15 0.44,18.32 0.35,27.48 a 0.59,0.59 0 0 0 0,0.27 c 0.67,6.9 9.77,5.68 14.71,5.77 9.19,0.16 18.37,0.26 27.56,0.36 7.05,0.08 15.24,1.49 22,-0.5 5.98,-1.75 5.32,-10.44 5.13,-15.49 z m -1.93,5.74 c -0.19,2.63 -1.13,6.71 -3.78,7.74 -2.08,0.81 -5,0.57 -7.2,0.6 -3.6,0.05 -7.2,-0.07 -10.8,-0.1 q -10.8,-0.09 -21.59,-0.21 l -12.94,-0.13 c -3.31,0 -9,0.7 -9.74,-4 v 0 c 0.16,-13.84 0,-27.7 0.31,-41.53 0.09,-3.49 1.56,-5.78 5.63,-6 4.07,-0.22 8.5,0.09 12.71,0 7.71,-0.19 15.37,-0.47 23.07,-0.17 4.26,0.16 8.53,0.22 12.79,0.41 2.56,0.11 7.1,-0.24 8.93,1.7 1.26,1.32 1.05,4.39 1.18,6.28 0.45,6.29 0.54,12.62 0.8,18.92 0.21,5.36 1.09,11.1 0.63,16.49 z"
       fill="#1e1e1e"
       id="path202" />
    <path
       d="m 980.3934,100.29424 c -0.24,-9.46 0.1,-19.28 -0.88,-28.68 -0.62,-6 -3.89,-7.23 -9.11,-8 -7.07,-1 -14.17,-1 -21.29,-1.1 -10.94,-0.23 -21.87,-0.14 -32.81,-0.17 -14,0 -29.18,-1.15 -43.1,1.36 a 0.55,0.55 0 0 0 -0.32,0.17 c -2,1 -2.33,4.17 -2.66,6 a 99.45,99.45 0 0 0 -1.08,14.94 q -0.12,6.81 0.08,13.64 c 0.12,4.54 -0.58,9.51 1.08,13.82 2.36,6.15 7.74,5 13.34,5.26 3.88,0.18 7.75,0.35 11.64,0.39 11.37,0.11 22.75,0 34.12,-0.16 12.6,-0.16 25.2,-0.48 37.8,-0.39 5.23,0 11.8,0.24 13,-6 0.61,-3.6 0.28,-7.46 0.19,-11.08 z m -2.3,9.71 c -1.29,5.77 -6.94,5.2 -11.7,5.14 -4.76,-0.06 -9.24,0 -13.86,0.09 l -16.39,0.19 c -16.76,0.23 -33.7,1 -50.45,0.06 -2.78,-0.16 -5.82,0.2 -8.55,-0.29 -6.44,-1.17 -5.63,-8 -5.81,-13.09 -0.11,-2.86 -0.29,-5.71 -0.36,-8.57 -0.14,-5.18 -0.18,-10.38 0,-15.56 0.1,-2.23 -0.26,-11.66 2.48,-12.82 9.83,-1.24 20.24,-0.8 30.12,-0.81 10.14,0 20.28,0.07 30.43,0.09 10.56,0 21.31,-0.31 31.82,0.74 2.46,0.24 6.09,0.2 8.42,1.3 3.09,1.47 3.06,5.07 3.14,8 0.1,3.76 0.22,7.51 0.34,11.26 0.17,5 0.33,10 0.44,15 0.12,2.94 0.57,6.37 -0.07,9.27 z"
       fill="#1e1e1e"
       id="path204" />
    <path
       d="m 619.9334,68.53424 c 0,-0.05 0,-0.1 0,-0.17 -0.4,-5.89 -3.74,-5.35 -8.94,-5.68 -6.09,-0.39 -12.2,-0.68 -18.31,-0.72 -10.12,-0.05 -20.25,0 -30.37,0 -9.09,0 -18.17,-0.05 -27.26,0.17 -3.75,0.09 -12.54,-1 -14.81,3 -1.45,2.55 -0.73,7.48 -0.79,10.42 -0.21,10.77 -1,21.71 -0.64,32.47 0.14,3.7 0.82,8.61 4.87,9.62 4.34,1.07 9.61,0.33 14.14,0.38 21.6,0.25 43.26,1 64.86,0.51 3.83,-0.08 14.53,1.53 16.4,-3.28 1.33,-3.44 0.58,-9.46 0.63,-13.2 q 0.22,-10.42 0.22,-20.84 c 0.07,-4.13 0.52,-8.56 0,-12.68 z m -1.54,9.93 c -0.12,5.68 -0.27,11.35 -0.41,17 -0.11,4.14 -0.14,8.29 -0.34,12.43 a 23,23 0 0 1 -0.44,5.21 c -1.14,3.8 -5.29,2.9 -8.49,3 -19.44,0.66 -39,-0.05 -58.4,-0.25 l -14.28,-0.15 h -3.42 c -1.72,0 -3.45,0.09 -5.17,0 -3.35,-0.14 -4.6,-0.61 -5.7,-3.79 -1,-3 -0.63,-6.31 -0.58,-9.44 q 0.12,-8.32 0.28,-16.66 c 0.07,-4.47 0.18,-8.94 0.22,-13.4 0,-0.75 0,-1.52 0,-2.27 0.07,-2.35 0,-4.16 2.62,-5.2 a 13,13 0 0 1 4.12,-0.54 c 8.46,-0.44 17,-0.4 25.42,-0.41 h 35.05 c 3.76,0 7.51,0 11.26,0.15 3.5,0.12 7,0.24 10.49,0.42 3.49,0.18 7.31,-0.51 7.84,3.83 a 0.6,0.6 0 0 0 0.06,0.19 v 0 c 0.46,3.14 -0.03,6.7 -0.1,9.88 z"
       fill="#1e1e1e"
       id="path206" />
    <path
       d="m 478.57,59.39 c -0.23,-2.69 -0.28,-7.91 -3.28,-9 -1.45,-0.52 -3.83,-0.1 -5.34,-0.12 -29.36,-0.37 -58.74,-0.3 -88.1,-0.35 Q 308.73,49.77 235.59,49.72 166.65,49.66 97.72,49.66 c -21.49,0 -43,0.1 -64.48,0 -5.62,0 -11.22,0 -16.84,0.28 -5.62,0.28 -10.1,0.65 -11.24,7.12 a 0.79,0.79 0 0 0 0,0.22 c -0.81,8.75 -0.3,17.8 -0.38,26.57 -0.09,9.54 -0.39,19.1 -0.22,28.64 0.07,3.87 0.06,9.48 2.67,12.62 2.81,3.4 10.77,2.48 14.64,2.67 3.47,0.17 6.93,0.16 10.4,0.16 q 42.18,0.06 84.35,0.21 73.29,0.18 146.59,0.15 69.31,0 138.64,0.06 h 44.9 c 7,0 14.17,0.37 21.16,-0.22 2.68,-0.23 6,-0.47 8.23,-2.21 2.23,-1.74 2,-4 2.09,-6.49 0.21,-4.87 0.59,-9.72 0.61,-14.6 Q 478.91,88.23 479,71.62 c 0,-4.03 -0.07,-8.13 -0.43,-12.23 z m -2,45.53 c 0,4.79 -0.4,9.55 -0.63,14.33 -0.14,2.8 0.34,4.3 -3,5.82 -2.11,1 -4.89,0.92 -7.14,1 -0.78,0 -1.57,0.06 -2.36,0.07 -2.25,0 -4.51,0 -6.76,0 q -17.23,0 -34.48,0 L 297.6,126.1 151.21,126 q -52.64,0 -105.25,0.15 c -5.69,0 -11.38,0 -17.07,0 -2.74,0 -5.47,-0.06 -8.21,-0.2 -3,-0.15 -7.92,0.34 -10.69,-1 -4.09,-1.91 -3.73,-9.41 -3.77,-13.44 -0.11,-10.07 0,-20.16 0.11,-30.23 0,-7.86 -0.47,-16 0.24,-23.82 0,0 0,0 0,-0.07 C 7.65,52 11.81,51.85 16.4,51.7 q 6.62,-0.21 13.23,-0.16 h 4.31 7.38 l 35,0.06 q 62.1,0.12 124.2,0.13 72.84,0.07 145.69,0.2 53.85,0.1 107.7,0.36 7,0 14.08,0.11 c 1.64,0 5.38,-0.65 6.88,0.12 1.27,0.65 1.57,6.58 1.66,8.72 0.17,3.82 0.33,7.56 0.31,11.39 z"
       fill="#1e1e1e"
       id="path208" />
    <path
       d="m 478.81,212.28 c -0.39,-3.51 -1.93,-7.12 -1.35,-10.67 0.38,-2.28 -0.46,-4.81 -3.19,-4.32 -2.73,0.49 -4.82,4 -5.22,6.46 -0.87,5.32 0.87,9.82 1.26,15.06 a 96,96 0 0 1 -0.75,18.17 c 0,0.28 -0.14,1.52 -0.27,2.64 l -1.23,0.2 c -2.53,-0.45 -6,0.5 -8.68,0.51 -6.05,0 -12.11,-0.12 -18.15,-0.19 L 406,239.71 c -10.4,-0.13 -21.11,-1.05 -31.46,0 -4.46,0.45 -8.26,11.41 -2,10.79 5.47,-0.55 11.16,0 16.65,0 l 20.56,0.25 q 20.57,0.25 41.13,0.5 c 10,0.11 23.69,1.35 26.37,-11.07 a 102.53,102.53 0 0 0 1.8,-18.76 66.82,66.82 0 0 0 -0.24,-9.14 z M 469,241.36 c 0,0.14 -0.07,0.22 -0.1,0.23 z"
       opacity="0.15"
       id="path210" />
    <path
       d="m 354.41,229 a 114.48,114.48 0 0 1 -1.51,-15.68 c -0.15,-4.17 0.7,-10.26 -1.46,-14 -1.4,-2.42 -4.9,0.08 -5.93,1.41 l -0.15,0.2 c -1.5,2 -3.23,5.71 -1.27,7.87 0.09,0.93 -0.07,2.93 0,3.65 0.08,1.89 0.13,3.78 0.2,5.66 0.13,3.77 0.3,7.53 0.75,11.27 0.23,2 2.2,8.1 1.72,10.48 -0.28,-0.59 -3,0.21 -3.73,0.26 -2.22,0.16 -4.46,0.19 -6.68,0.23 -14.18,0.3 -28.32,-0.59 -42.47,-1.28 -4.66,-0.23 -9.35,10.72 -4.12,11 9.06,0.45 18.11,1 27.18,1.23 5.41,0.13 10.82,0.18 16.23,0 4.31,-0.1 9.7,0.38 13.67,-1.56 7.89,-3.84 8.91,-13.01 7.57,-20.74 z"
       opacity="0.15"
       id="path212" />
    <path
       d="m 270.57,201.33 c -1,-7.08 -9.28,0.18 -8.66,4.8 0.82,6 1.66,12.06 2.47,18.09 0.53,3.95 2.26,11.21 1.11,16 -2.86,0.49 -6.76,-0.21 -9.18,-0.21 h -9.86 c -7.63,0 -15.25,0 -22.88,-0.08 -14.92,-0.15 -29.83,-0.6 -44.71,-1.63 -4.65,-0.32 -9.39,10.62 -4.13,11 25.78,1.78 51.63,1.74 77.46,1.69 4.61,0 10.73,1.09 14.93,-1.23 4.35,-2.39 5.87,-7.63 6.54,-12.22 1.71,-11.84 -1.5,-24.54 -3.09,-36.21 z"
       opacity="0.15"
       id="path214" />
    <path
       d="m 363.25,196.61 c 0.43,-2 -1.46,-4.08 3.31,-5.09 1.18,-0.25 79.94,-1.25 88,-1.11 3.49,0.05 13.33,1.22 14.35,2.11 2.48,2.16 2.87,5.57 2.73,7.9 -0.09,1.51 1.17,34.47 0.83,37.51 -0.15,1.36 -0.78,5.63 -3.11,5.94 -6.44,0.88 -100.49,-0.1 -102.56,-1 -2.07,-0.9 -4,-4.87 -4.23,-7.35 -0.23,-2.48 0.25,-36.93 0.68,-38.91 z"
       fill="#f7941f"
       id="path216" />
    <path
       d="m 280.63,240.42 c 0.21,1 3.08,3.11 5.33,3.63 0.56,0.13 55,1.73 58.82,-0.4 3,-1.84 2.79,-8 2.74,-8.77 0,0 -0.72,-38.29 -0.89,-39.85 a 9.26,9.26 0 0 0 -2.82,-3.64 c -1.77,-1.08 -51.83,-0.5 -56.47,-0.31 -6.83,0.28 -6.63,3.91 -6.73,5.18 -0.1,1.27 -0.18,43.14 0.02,44.16 z"
       fill="#f7941f"
       id="path218" />
    <path
       d="m 264.18,195.47 c -0.24,-1 -1.32,-4.72 -6.26,-4.66 -1.6,0 -85,-0.46 -86.58,-0.1 -1.25,0.27 -4.75,-0.42 -4.74,7 l -1.19,38.16 c 0.2,1.57 2.32,6.64 3.47,7.23 2.08,1.08 91.59,1.1 92.87,0.76 3,-0.81 3.21,-2.77 3.48,-4 0.84,-3.86 -0.81,-43.37 -1.05,-44.39 z"
       fill="#f7941f"
       id="path220" />
    <path
       d="m 261.14,193 a 73.21,73.21 0 0 0 -17,-1.9 3.12,3.12 0 0 0 -1.82,0.7 l -1,-0.14 c -6.42,-0.8 -12.86,-1.47 -19.32,-1.94 a 255.6,255.6 0 0 0 -37.74,-0.15 c -4.06,0.3 -9.46,0 -12.9,2.48 -3.59,2.57 -3.45,6.82 -3.58,10.78 -0.19,6.09 -0.4,12.18 -0.57,18.28 -0.14,5.25 0.45,10.4 0.65,15.59 -0.67,1.38 -1,2.91 0,3.84 l 0.25,0.25 c 1.44,1.39 3.39,0.36 4.45,-1.07 2.94,-3.93 1.32,-8 1.13,-12.64 -0.26,-6.24 0.12,-12.52 0.32,-18.76 0.09,-3 0.19,-6.06 0.28,-9.09 0,-0.18 0,-0.42 0.06,-0.7 l 1.33,-0.2 a 147,147 0 0 1 20,-1.14 304.93,304.93 0 0 1 37.73,2.13 c 6.43,0.73 12.85,1.62 19.24,2.61 4.95,0.76 7.59,0.16 9.81,-4.55 0.71,-1.5 0.6,-3.91 -1.32,-4.38 z"
       fill="#ffffff"
       opacity="0.25"
       id="path222" />
    <path
       d="m 343.14,194 c -2.48,-2.12 -6,-1.64 -9.1,-1.71 l -11.88,-0.3 -24.74,-0.61 c -5.06,-0.13 -11.3,-1.45 -14.54,3.48 -3.41,5.19 -1.55,14 -1.49,19.84 a 2,2 0 0 0 1.5,2.16 c 0,1.17 -0.07,2.34 -0.12,3.51 q -0.42,10 -1.15,20 c -0.15,2.07 1.73,2.62 3.3,1.91 2,-0.9 3,-3.49 3.19,-5.51 0.59,-8.23 1.05,-16.47 1.33,-24.71 0.11,-3.29 1,-8 0.64,-12.16 2,0.17 4.76,-0.23 6.22,-0.19 l 8.91,0.22 15.84,0.39 8.91,0.22 c 2.67,0.07 6.51,-0.55 8.68,1.3 2.63,2.16 7.36,-5.36 4.5,-7.84 z"
       fill="#ffffff"
       opacity="0.25"
       id="path224" />
    <path
       d="m 466.11,193.27 a 41.86,41.86 0 0 0 -18.66,-0.79 2.38,2.38 0 0 0 -0.65,0.22 l -30.8,-0.91 -24.55,-0.72 c -7.11,-0.21 -14.18,-0.42 -21.09,1.47 a 6.2,6.2 0 0 0 -0.54,-0.46 c -2.05,-1.53 -4.55,2.33 -5.1,3.63 -2.7,6.35 -2.22,14.21 -2.4,21 -0.18,6.79 -1.3,14.47 1.78,20.59 a 1.56,1.56 0 0 0 0.81,0.8 c 0,0.6 0.07,1.21 0.11,1.81 0.37,5.32 6.73,-0.14 6.49,-3.6 -0.18,-2.62 -0.31,-5.24 -0.42,-7.87 1,-5.5 1.41,-11.09 1.93,-16.71 0.3,-3.27 1.45,-8 1.24,-12.13 5.3,-0.66 10.67,-0.37 16.06,-0.21 l 24.55,0.72 48.13,1.39 c 3.31,0.1 7.24,-7.1 3.11,-8.23 z"
       fill="#ffffff"
       opacity="0.25"
       id="path226" />
    <path
       d="m 472.91,207.32 c -0.11,-3.23 0.2,-6.81 -0.36,-10 -1.08,-6.17 -5.11,-6.63 -10.48,-7.32 -12.11,-1.55 -24.61,-0.54 -36.82,-0.55 -14.06,0 -28.15,-0.31 -42.21,0.13 -5.19,0.17 -11.57,-0.38 -16.61,1 -5.37,1.48 -3.53,7.39 -3.92,11.51 a 0.43,0.43 0 0 0 0,0.12 c -1.31,8.09 -1,16.94 -1,25.12 0,4.68 -0.94,12.29 3.28,15.71 3.36,2.72 9.9,1.56 14,1.79 19.6,1.13 39.28,-0.61 58.89,0.06 9.54,0.33 19.68,1.64 29.18,0.45 5.61,-0.71 6.8,-2.7 6.74,-7.93 -0.05,-10.02 -0.38,-20.06 -0.69,-30.09 z m -4.54,35.49 c -3,1.34 -8.08,0.4 -11.25,0.4 -4.6,0 -9.19,-0.15 -13.78,-0.35 -18.48,-0.84 -37,0.09 -55.51,0 q -5.5,0 -11,-0.28 c -3.86,-0.18 -9.53,1 -12,-2.69 -2.16,-3.32 -1.5,-8.54 -1.56,-12.3 -0.11,-8.09 -0.71,-17.1 0.61,-25.11 0,0 0,-0.08 0.05,-0.13 0.23,-1.62 0,-3.25 0.13,-4.88 0.28,-4 2.48,-5 5.94,-5.24 4.62,-0.28 9.25,-0.52 13.87,-0.63 11.56,-0.29 23.13,-0.05 34.69,0 9.56,0 19.11,0.06 28.67,-0.07 6,-0.08 13.69,-0.66 19.4,1.44 4.6,1.71 3.87,7 4,11 0.24,9.44 0.59,18.87 0.74,28.3 0,1.48 0,3 0,4.43 0.02,2.65 -0.09,4.79 -3,6.11 z"
       fill="#1e1e1e"
       id="path228" />
    <path
       d="m 348.52,229.32 c -0.09,-8.68 -0.12,-17.37 -0.28,-26 0,-0.84 -0.05,-1.65 -0.09,-2.48 -0.09,-1.87 0.5,-5.83 -0.14,-7.46 -1.29,-3.27 -8.28,-3.36 -11.11,-3.62 a 233,233 0 0 0 -27.84,-0.57 c -5.23,0.17 -10.44,0.63 -15.67,0.79 -3.86,0.12 -8.58,-0.83 -11.71,2 -1.9,1.73 -2.19,3.84 -2.21,6.23 0,4.61 0.1,9.22 0.16,13.83 0.12,9 0.43,18.11 0.34,27.16 a 0.59,0.59 0 0 0 0,0.27 c 0.66,6.91 9.8,5.69 14.74,5.78 9,0.16 18.06,0.26 27.09,0.36 7.06,0.08 15.23,1.46 22,-0.54 5.84,-1.75 4.77,-10.86 4.72,-15.75 z m -2,5.77 c -0.11,2.54 -0.4,6.53 -2.89,7.85 -1.76,0.93 -4.78,0.62 -6.73,0.68 -4,0.11 -8.06,-0.05 -12.09,-0.08 -6.72,0 -13.45,-0.13 -20.17,-0.19 l -13.42,-0.14 c -3.32,0 -9,0.7 -9.78,-4 v 0 c 0.15,-13.74 -0.19,-27.53 0.31,-41.27 0.13,-3.81 2.23,-5.62 6.36,-5.76 4.13,-0.14 8.36,-0.1 12.55,-0.32 7.9,-0.41 15.7,-0.64 23.6,-0.35 4.21,0.16 8.49,0.08 12.69,0.46 1.78,0.16 7,0.33 8.33,1.78 0.84,0.93 0.5,4.4 0.61,5.88 0.45,6 0.32,12.12 0.4,18.16 0.03,5.75 0.42,11.57 0.18,17.3 z"
       fill="#1e1e1e"
       id="path230" />
    <path
       d="m 266.38,230.51 c -0.43,-11 0.17,-22.65 -1.49,-33.54 a 0.67,0.67 0 0 0 0,-0.2 c -1,-6.24 -3.32,-6.68 -9.17,-7 -5.85,-0.32 -11.82,-0.64 -17.73,-0.67 -10.23,0 -20.45,0 -30.67,0 -9.46,0 -18.91,-0.06 -28.36,0.21 -4.45,0.12 -12.21,-0.82 -13.29,4.88 -0.56,3 -0.24,6.58 -0.33,9.6 l -0.58,18 c -0.15,4.47 -0.79,9.21 -0.46,13.67 0.28,3.83 2.19,8.62 6.27,9.46 4.08,0.84 9.13,0.22 13.4,0.27 21.26,0.25 42.58,0.9 63.84,0.51 4.08,-0.07 8.17,-0.14 12.24,-0.41 1.91,-0.12 4.31,-0.13 5.53,-1.91 2.05,-3.05 0.95,-9.27 0.8,-12.87 z m -1.8,5.09 c -0.06,2.26 0.2,6.21 -2.33,7.3 -2.19,0.93 -6.17,0.3 -8.5,0.37 -19.3,0.54 -38.66,-0.09 -58,-0.29 l -14.28,-0.15 c -4.29,-0.05 -10.87,1.42 -13.26,-2.52 -2.05,-3.39 -1.65,-6.26 -1.54,-10 0.15,-5.48 0.32,-11 0.48,-16.44 l 0.42,-13.9 c 0,-0.74 0.06,-1.49 0.07,-2.23 0,-1.19 -0.36,-3 0.26,-4.08 1.14,-1.94 3.77,-2 5.71,-2.13 8.52,-0.58 17.12,-0.44 25.67,-0.44 l 35.05,-0.05 c 3.75,0 7.5,0 11.26,0.15 3.5,0.12 7,0.24 10.49,0.43 a 20,20 0 0 1 3.38,0.21 c 3.14,0.77 3.42,2.69 4,5.31 0,0.05 0,0.07 0,0.11 1.33,8.69 0.58,18.19 0.8,27 0.14,3.75 0.41,7.57 0.32,11.35 z"
       fill="#1e1e1e"
       id="path232" />
    <path
       d="m 25.07,22.08 c -1.35,-2.31 -4.79,-0.95 -5.86,1 a 6.33,6.33 0 0 0 -0.66,2.79 c -0.43,0 -0.85,0.06 -1.26,0.11 -1.13,0.14 -1.66,1.92 -0.3,2.19 a 15.79,15.79 0 0 0 1.62,0.23 c 0,0.47 0.06,0.92 0.07,1.35 0.07,3 0,6 -0.17,9 -0.1,1.79 2.73,1.8 2.79,0 0.12,-3.22 0.09,-6.43 -0.06,-9.65 0,-0.21 0,-0.44 0,-0.67 A 13.24,13.24 0 0 0 23,28.24 1.25,1.25 0 0 0 22.67,25.79 h -1.59 a 2.63,2.63 0 0 1 1.44,-2.35 c 0.56,-0.27 1.63,-0.18 2.32,-0.47 a 0.66,0.66 0 0 0 0.23,-0.89 z"
       fill="#7f3f98"
       id="path234" />
    <path
       d="m 28.1,21.26 c -1.57,2.14 -0.91,5.1 -0.92,7.65 0,3.42 -0.06,6.83 -0.14,10.25 a 1.24,1.24 0 0 0 2.47,0 c 0.12,-3.65 0.2,-7.29 0.18,-10.93 0,-2.48 0.46,-5 -1.14,-7 a 0.28,0.28 0 0 0 -0.45,0.06 z"
       fill="#7f3f98"
       id="path236" />
    <path
       d="m 44.57,36.32 c -3.33,3.35 -7.86,2 -8.73,-2 a 18,18 0 0 0 2.36,0.21 36.07,36.07 0 0 0 6.73,-0.26 1.42,1.42 0 0 0 1.37,-1.38 c 0.23,-3.35 -1.82,-6.76 -5.33,-7.27 a 6.46,6.46 0 0 0 -7.15,4.83 c -1,3.48 -0.52,7.27 2.73,9.34 3.25,2.07 7.29,1 9.92,-1.61 a 1.34,1.34 0 0 0 -1.9,-1.86 z m -1.09,-4.63 c -1.61,0.16 -3.22,0.28 -4.83,0.29 -1,0 -1.94,-0.13 -2.88,-0.06 0.77,-5.15 6.97,-4.59 7.71,-0.23 z"
       fill="#7f3f98"
       id="path238" />
    <path
       d="m 59.89,38.3 -4,-4.82 c 1.12,-1.74 2.07,-3.57 3.34,-5.2 a 1.11,1.11 0 0 0 0.28,-1.05 C 59.45,27.08 59.38,26.79 59.21,26.7 L 59,26.59 a 1.11,1.11 0 0 0 -1.31,0.17 22.87,22.87 0 0 0 -3.55,4.63 c -1.4,-1.73 -2.79,-4.24 -4.93,-4.95 a 0.61,0.61 0 0 0 -0.76,0.58 c 0.12,2.45 2.54,4.66 4,6.55 l 0.06,0.08 c -1.37,1.7 -2.9,3.28 -4.41,4.85 -1.24,1.29 0.72,3.25 2,2 1.44,-1.5 2.86,-3 4.15,-4.63 1.2,1.53 2.41,3.05 3.66,4.54 1.25,1.49 3.18,-0.68 1.98,-2.11 z"
       fill="#7f3f98"
       id="path240" />
    <path
       d="m 62.7,34.44 a 12.47,12.47 0 0 0 5.88,0.39 c 1.54,-0.35 1,-2.38 -0.34,-2.54 -1.71,-0.2 -3.49,-0.14 -5.21,-0.29 -1.43,-0.13 -1.64,2.06 -0.33,2.44 z"
       fill="#7f3f98"
       id="path242" />
    <path
       d="m 81.59,27.68 c -2,-2.49 -8.79,-3.56 -9.85,0.38 -0.62,2.31 0.87,4.21 2.84,5.18 1.3,0.63 3.64,0.73 4.51,1.92 2.54,3.47 -4.13,4.57 -5.9,1.68 -0.76,-1.22 -2.74,0 -1.9,1.11 a 6.53,6.53 0 0 0 6.51,2.63 c 2.28,-0.4 4.55,-2.1 4.28,-4.66 -0.27,-2.56 -3,-3.56 -5.16,-4.15 -1.42,-0.38 -4.3,-1.28 -2.76,-3.17 a 2.42,2.42 0 0 1 2.43,-0.83 9,9 0 0 1 3.68,1.63 c 1.1,0.77 2,-0.83 1.32,-1.72 z"
       fill="#7f3f98"
       id="path244" />
    <path
       d="m 90.07,37.42 c -1.5,1.14 -1.71,-3.18 -1.77,-3.87 -0.11,-1.44 -0.15,-2.89 -0.14,-4.33 0,-0.13 0,-0.26 0,-0.39 a 4.54,4.54 0 0 0 2.2,0 1.28,1.28 0 0 0 0.3,-2.3 4.75,4.75 0 0 0 -2.3,-0.32 11,11 0 0 0 -0.09,-3.21 0.88,0.88 0 0 0 -1.6,-0.21 13.83,13.83 0 0 0 -0.91,3.29 10.48,10.48 0 0 0 -1.58,0.1 c -1,0.17 -0.74,1.5 0,1.8 a 7.82,7.82 0 0 0 1.33,0.4 32.56,32.56 0 0 0 0.71,8.93 c 0.62,2.58 3.72,4.49 5.49,1.76 0.62,-0.96 -0.71,-2.38 -1.64,-1.65 z"
       fill="#7f3f98"
       id="path246" />
    <path
       d="m 105,32.7 c -0.25,-1.77 -0.31,-4 -1.58,-5.35 -2.23,-2.47 -6.54,-1.84 -8.61,0.47 A 0.68,0.68 0 0 0 95.27,29 c 2.72,0 6.12,-2 6.76,2.16 0,0.2 0,0.4 0.08,0.6 a 9.17,9.17 0 0 0 -4.82,-0.61 5.08,5.08 0 0 0 -4.07,5.53 c 0.52,4.8 6.12,4.8 9.48,2.58 v 0.34 c 0,1.9 3.08,1.88 3,0 -0.21,-2.34 -0.39,-4.6 -0.7,-6.9 z m -5.68,5.42 c -1.42,0.35 -3.26,0 -3.63,-1.59 -0.53,-2.3 1.63,-3.1 3.46,-2.94 a 18.2,18.2 0 0 1 3.3,0.87 c 0,0.59 0.1,1.19 0.14,1.79 a 11.53,11.53 0 0 1 -3.28,1.87 z"
       fill="#7f3f98"
       id="path248" />
    <path
       d="m 115.74,26.73 c -1.52,-0.72 -2.94,0.59 -4.08,1.5 -0.1,0.07 -0.18,0.15 -0.27,0.22 a 4.17,4.17 0 0 0 -0.84,-2 0.48,0.48 0 0 0 -0.68,0 c -1.2,1.51 -0.9,3.37 -0.92,5.24 0,2.61 -0.1,5.24 0,7.85 a 1.3,1.3 0 0 0 2.6,0 c 0.06,-2.61 0,-5.24 0,-7.85 v -0.53 a 16.75,16.75 0 0 1 1.4,-1.12 c 0.39,-0.29 0.8,-0.56 1.21,-0.81 0.41,-0.25 1.17,-0.41 1.66,-0.78 0.49,-0.37 0.68,-1.37 -0.08,-1.72 z"
       fill="#7f3f98"
       id="path250" />
    <path
       d="m 125.64,26.4 a 7.82,7.82 0 0 0 -2.94,-0.4 12.73,12.73 0 0 0 -0.52,-3.14 0.85,0.85 0 0 0 -1.63,0 12.9,12.9 0 0 0 -0.46,3.16 7.7,7.7 0 0 0 -1.87,0.31 1,1 0 0 0 0,1.88 11.31,11.31 0 0 0 1.86,0.34 c 0,0.52 0,1 0,1.55 0,2.42 -0.4,5.26 0.19,7.62 0.68,2.72 3.65,4 5.43,1.48 0.91,-1.3 -1.17,-2.92 -2.21,-1.7 -0.17,0.2 -0.62,-3.38 -0.63,-3.89 0,-1.36 0,-2.73 -0.09,-4.09 0,-0.27 0,-0.53 0,-0.8 a 21.81,21.81 0 0 1 2.18,0.19 1.3015568,1.3015568 0 0 0 0.69,-2.51 z"
       fill="#7f3f98"
       id="path252" />
    <path
       d="m 478.47,197.42 c 0,-4.47 1.06,-11.92 -1.84,-15.75 -1.51,-2 -4.24,-2.09 -6.55,-2.46 -5.35,-0.87 -10.52,-0.39 -15.91,-0.3 -1.61,0 -3.21,0 -4.81,0 q -42.93,-0.06 -85.85,-0.2 -72.35,-0.19 -144.69,-0.15 -68.07,0 -136.16,-0.06 c -21.06,0 -42.39,-1 -63.44,0 -6.51,0.3 -13.48,2.53 -14.39,9.62 A 124.35,124.35 0 0 0 4.19,203 L 4,235.54 c 0,4.57 -0.33,9.51 0.52,14 1,5 5.53,7.66 10.32,7.86 5.7,0.24 11.42,0 17.12,0 25.57,0.06 51.13,0 76.7,0 q 70.21,0 140.43,0 h 137.1 c 21.2,0 42.41,-0.11 63.62,-0.06 6.84,0 13.67,0 20.5,-0.37 5.7,-0.32 7.21,-1.4 7.56,-7.23 a 0.39,0.39 0 0 0 0,-0.15 c 0.82,-8.94 0.31,-18.17 0.39,-27.13 0.1,-8.46 0.21,-16.74 0.21,-25.04 z m -6,57.65 c -1.44,0.41 -3.41,0.16 -4.93,0.2 -4.92,0.14 -9.85,0.15 -14.78,0.11 H 449 441.49 l -35.23,-0.05 q -61.72,-0.06 -123.45,0 H 140.9 43.38 c -6.62,0 -13.25,-0.07 -19.87,0 a 79.91,79.91 0 0 1 -9.54,0 7.93,7.93 0 0 1 -4,-1.45 c -3.81,-2.5 -3.33,-6.21 -3.51,-10.1 -0.16,-3.38 -0.28,-6.65 -0.26,-10 q 0.09,-15.92 0.2,-31.83 c 0,-5.88 -1.16,-15.15 4.07,-18.66 2.72,-1.82 6.4,-2.2 9.61,-2.29 2.51,-0.07 5,0 7.55,0 h 35 l 123.23,0.07 q 72,0 144.07,0.06 52.44,0 104.9,-0.14 c 6.32,0 12.66,0.08 19,-0.05 0.7,0 1.41,0 2.11,-0.07 5.11,-0.22 13,-1.56 17.75,1 4.43,2.44 3.08,11.89 3.09,16.23 0,9 0,18 -0.1,27 0,8.11 0.47,16.49 -0.26,24.58 a 1,1 0 0 0 -0.05,0.16 c -0.14,2.44 -1.37,4.53 -3.88,5.23 z"
       fill="#1e1e1e"
       id="path254" />
    <path
       d="m 479.22,366.29 q -0.51,-16.49 -1,-33 c -0.12,-3.84 -0.08,-7.58 0,-11.43 0,-2.69 0.19,-6.52 -2,-8.52 -1.68,-1.52 -5.18,-1.89 -7.27,-2.33 -6.48,-1.34 -13.24,-0.56 -19.83,-0.57 -25.45,-0.06 -50.9,0 -76.35,0 H 233.06 97.54 c -20.78,0 -41.55,0.1 -62.33,0.06 -7.69,0 -16,-0.83 -23.61,0.88 -7.19,1.64 -5.39,7.58 -5.79,13.79 a 0.66,0.66 0 0 0 0,0.25 c 0.15,16.68 -0.38,33.47 0.64,50.12 0.19,3.15 -1.06,10 2.21,11.75 4.5,2.44 12.18,1.53 17.08,1.54 8,0 16,-0.11 24,0 25.15,0.43 50.35,0 75.51,0 q 70,0 140.08,-0.21 l 136.39,-0.28 64.44,-0.19 c 5.71,0 12,0.68 12.56,-6.43 a 150,150 0 0 0 0.5,-15.43 z m -2.51,10.4 c -0.26,3.87 0.3,8.67 -4.6,9.31 a 54.91,54.91 0 0 1 -6.91,0 h -8 l -35.87,0.09 -123.63,0.25 -141.1,0.3 q -48.23,0.12 -96.46,0.36 c -9.54,0 -19.1,-0.33 -28.62,0 A 108.6,108.6 0 0 1 12.78,386.53 C 9.38,386.05 8.67,385.82 8.45,382.36 8.23,378.9 7.99,375.56 7.79,372.15 7.33,364.27 7.52,356.3 7.43,348.4 7.34,340.7 7.23,333 7.16,325.29 a 0.29,0.29 0 0 0 0,-0.11 c 0.37,-4.76 -0.74,-11.25 5.41,-12.22 5.63,-0.88 11.46,-0.66 17.14,-0.63 l 6.1,0.05 h 7.27 q 17.35,0 34.7,0 l 122.44,0.05 h 140.56 97 c 8,0 16.08,-0.09 24.12,-0.09 a 28.55,28.55 0 0 1 10.08,1.53 c 5.33,2.1 3.71,8.14 3.73,12.88 0,3.17 0.19,6.36 0.28,9.53 q 0.48,15.76 0.94,31.53 c 0,0.89 0.1,1.8 0.08,2.69 0.05,2.18 -0.17,4.21 -0.3,6.19 z"
       fill="#1e1e1e"
       id="path256" />
    <path
       d="m 985.8634,114.48424 c -0.17,-8.31 -0.3,-16.61 -0.46,-24.92 -0.14,-8 0.21,-16.18 -0.64,-24.15 -0.59,-5.55 -2.2,-11.6 -8,-13.63 -7.13,-2.5 -16.18,-0.55 -23.56,-0.33 -4.3,0.13 -8.55,-0.37 -12.84,-0.37 h -80.86 q -70.23,0 -140.47,0.22 l -133.2,0.28 -43,0.11 c -7.27,0 -15.38,-0.74 -22.59,0.38 -9.21,1.43 -7,9.21 -6.92,16.42 0,3 0,6 0,9 q 0.13,16 0.28,31.94 c 0,4.16 -1.14,8.84 -0.15,12.84 1.54,6.26 7.71,8.12 13.44,8.37 5.48,0.25 11,-0.06 16.49,-0.07 l 78.77,-0.21 q 69.48,-0.2 139,-0.35 l 133.4,-0.36 c 20.64,0 41.29,-0.21 61.94,-0.2 7.6,0 15.46,0.53 23,-0.79 7.54,-1.32 6,-7.66 6.43,-13.89 a 0.59,0.59 0 0 0 -0.06,-0.29 z m -1.88,7.16 c -0.45,4.56 -3.83,5.31 -7.67,5.67 a 159.52,159.52 0 0 1 -16.22,0.28 c -1.46,0 -2.91,0 -4.37,0 -2.46,0 -4.92,0 -7.37,0 q -17.12,0 -34.23,0 -60.17,0.11 -120.31,0.24 l -139.87,0.3 q -49.11,0.12 -98.23,0.21 c -5.28,0 -10.56,0 -15.85,0 -7.9,0 -24.71,2.91 -24.42,-9.42 0.09,-3.83 0.39,-7.64 0.37,-11.48 q -0.12,-15.78 -0.23,-31.55 c 0,-3.3 0.08,-6.64 -0.09,-9.94 -0.13,-2.44 -0.78,-5.19 -0.17,-7.59 1,-4.08 4.74,-4.14 8.35,-4.33 1.2,-0.07 2.42,-0.06 3.63,-0.07 2.13,0 4.26,0 6.4,0 l 32.9,-0.08 119.64,-0.25 141,-0.3 q 50.1,-0.12 100.21,-0.37 c 5.28,0 10.62,-0.27 15.9,-0.06 8.23,0.33 16.31,-0.21 24.54,-0.37 4.45,-0.08 9.95,-0.05 12.64,4.14 2.13,3.32 2.57,7.63 2.8,11.47 0.46,7.77 0.39,15.61 0.57,23.39 0.18,7.78 0.36,15.41 0.52,23.11 a 0.45,0.45 0 0 0 0,0.11 c -0.18,2.3 -0.21,4.6 -0.44,6.89 z"
       fill="#1e1e1e"
       id="path258" />
    <path
       d="m 985.8634,391.86424 c -0.17,-8.3 -0.3,-16.61 -0.46,-24.91 -0.14,-8 0.21,-16.19 -0.64,-24.15 -0.59,-5.56 -2.2,-11.6 -8,-13.63 -7.13,-2.5 -16.18,-0.55 -23.56,-0.33 -4.3,0.12 -8.55,-0.38 -12.84,-0.38 h -80.84 q -70.23,0 -140.47,0.22 -66.6,0.12 -133.2,0.28 l -43,0.11 c -7.27,0 -15.38,-0.74 -22.59,0.38 -9.21,1.43 -7,9.21 -6.92,16.41 0,3 0,6 0,9 q 0.13,16 0.28,31.94 c 0,4.16 -1.14,8.84 -0.15,12.84 1.54,6.25 7.71,8.11 13.44,8.37 5.48,0.25 11,-0.06 16.49,-0.08 l 78.77,-0.21 139,-0.35 133.4,-0.35 c 20.64,-0.06 41.29,-0.21 61.94,-0.21 7.6,0 15.46,0.54 23,-0.78 7.54,-1.32 6,-7.66 6.43,-13.89 a 0.61,0.61 0 0 0 -0.08,-0.28 z m -1.88,7.17 c -0.45,4.56 -3.83,5.31 -7.67,5.67 -5.36,0.5 -10.84,0.32 -16.22,0.28 -1.46,0 -2.91,0 -4.37,0 h -7.37 -34.23 q -60.17,0.12 -120.31,0.24 l -139.88,0.32 -98.23,0.2 c -5.28,0 -10.56,0 -15.85,0 -7.9,0 -24.71,2.91 -24.42,-9.42 0.09,-3.84 0.39,-7.64 0.37,-11.49 q -0.12,-15.76 -0.23,-31.54 c 0,-3.3 0.08,-6.65 -0.09,-9.94 -0.13,-2.44 -0.78,-5.19 -0.17,-7.59 1,-4.08 4.74,-4.15 8.35,-4.34 1.2,-0.06 2.42,-0.05 3.63,-0.06 2.13,0 4.26,0 6.4,0 q 16.44,-0.06 32.9,-0.08 l 119.64,-0.25 141,-0.31 q 50.1,-0.11 100.21,-0.36 c 5.28,0 10.62,-0.28 15.9,-0.06 8.23,0.33 16.31,-0.22 24.54,-0.37 4.45,-0.08 9.95,-0.06 12.64,4.13 2.13,3.32 2.57,7.63 2.8,11.48 0.46,7.77 0.39,15.6 0.57,23.39 0.18,7.79 0.36,15.41 0.52,23.11 a 0.45,0.45 0 0 0 0,0.11 c -0.17,2.28 -0.2,4.59 -0.43,6.88 z"
       fill="#1e1e1e"
       id="path260" />
    <path
       d="m 24.43,152.08 a 0.63,0.63 0 0 0 0.61,-0.61 v -0.48 a 1.19,1.19 0 0 0 -0.85,-1.13 c -2.71,-0.87 -4.77,1 -5.2,3.66 a 8.52,8.52 0 0 0 -0.07,2 2.69,2.69 0 0 0 -2.16,0.87 0.47,0.47 0 0 0 0.07,0.57 2.79,2.79 0 0 0 2.3,0.62 c 0.11,0.84 0.23,1.67 0.27,2.47 a 48.69,48.69 0 0 1 -0.22,8.45 c -0.15,1.3 1.95,1.32 2.06,0 a 64.41,64.41 0 0 0 0.34,-9.1 c 0,-0.6 -0.1,-1.24 -0.15,-1.89 A 6.69,6.69 0 0 0 24.2,157 c 0.73,-0.35 0.43,-1.36 -0.21,-1.6 a 6.14,6.14 0 0 0 -2.62,-0.16 3.11,3.11 0 0 1 3.06,-3.16 z"
       fill="#7f3f98"
       id="path262" />
    <path
       d="m 28.41,151.11 c -1.54,1.84 -1,4.34 -1,6.65 0,3.46 -0.06,6.94 0,10.4 a 1.09,1.09 0 0 0 2.18,0 c 0.09,-3.46 0,-6.94 0,-10.4 0,-2.31 0.59,-4.81 -0.95,-6.65 a 0.22,0.22 0 0 0 -0.32,0 z"
       fill="#7f3f98"
       id="path264" />
    <path
       d="m 47.2,161.9 c -1.16,-3 -3,-6.52 -6.66,-6.55 -3.66,-0.03 -5.54,2 -6.7,5.21 -1.16,3.21 -0.77,6 2.22,7.9 2.99,1.9 6.68,2.43 9.22,-0.18 a 1.21,1.21 0 0 0 -1.71,-1.71 c -1.84,1.72 -4.07,1.36 -6.12,0.2 a 3.58,3.58 0 0 1 -2.08,-3.53 49,49 0 0 1 5.55,0.06 c 1.85,0.21 3.56,0.7 5.39,0.17 a 1.29,1.29 0 0 0 0.89,-1.57 z m -8.27,-1.08 a 18.61,18.61 0 0 0 -3.09,0.34 c 0,0 0,0 0,0 0.77,-2 1.93,-3.51 4.33,-3.46 2.16,0.06 3.24,1.79 4,3.56 -1.69,-0.02 -3.62,-0.51 -5.24,-0.44 z"
       fill="#7f3f98"
       id="path266" />
    <path
       d="m 59.58,168 c -0.41,-2.22 -2.67,-3.78 -4.29,-5.39 1.55,-1.92 3.73,-4.09 4.13,-6.38 0.07,-0.38 -0.25,-0.88 -0.7,-0.7 -2.14,0.83 -3.67,3.16 -5.09,5.06 -0.62,-0.85 -1.2,-1.74 -1.8,-2.61 -0.6,-0.87 -1.26,-2.15 -2.28,-2.64 -0.66,-0.32 -1.51,0.36 -1.07,1.08 1.26,2 2.27,4.13 3.6,6.1 -1.53,1.79 -3.27,3.72 -3.95,5.84 -0.29,0.87 0.85,1.86 1.65,1.27 a 18.78,18.78 0 0 0 3.95,-4.85 30,30 0 0 0 4,4.32 1.14,1.14 0 0 0 1.85,-1.1 z"
       fill="#7f3f98"
       id="path268" />
    <path
       d="m 62.61,163.48 a 7.61,7.61 0 0 0 2.85,0.32 c 1,-0.05 2.21,-0.09 2.77,-1.1 a 1.23,1.23 0 0 0 -0.44,-1.65 c -1,-0.5 -1.69,0 -2.68,0.11 -0.82,0.13 -1.69,0 -2.5,0.15 a 1.13,1.13 0 0 0 0,2.17 z"
       fill="#7f3f98"
       id="path270" />
    <path
       d="m 82.54,166 c -3.46,3.23 -7.57,0.88 -8.45,-2.49 a 37.1,37.1 0 0 0 7.81,0.1 c 2,-0.19 3.14,-1 2.86,-3.11 -0.54,-4 -6.28,-7.23 -9.8,-4.64 a 8,8 0 0 0 -3.11,6.11 1.06,1.06 0 0 0 0,1 7.41,7.41 0 0 0 12.58,4.94 c 1.3,-1.21 -0.62,-3.14 -1.89,-1.91 z m -7,-7.58 c 1.4,-1.44 3,-1 4.67,-0.18 1.11,0.55 2.87,2 1.25,2.9 -0.93,0.49 -3.33,0.22 -4.38,0.24 -1.05,0.02 -2.07,0 -3.1,0 a 5.56,5.56 0 0 1 1.56,-3.01 z"
       fill="#7f3f98"
       id="path272" />
    <path
       d="m 100.29,160.33 c -0.26,-1.8 -0.81,-3.83 -2.65,-4.61 -2.4,-1 -5.15,0.2 -6.73,2.19 a 2.5,2.5 0 0 0 -0.83,-1.58 0.3,0.3 0 0 0 -0.34,0 c -1.65,0.84 -1.35,3.43 -1.44,5.05 -0.13,2.56 -0.48,5.58 0.38,8 0.33,1 2,1.21 2.2,0 0.41,-2.44 -0.1,-5.05 -0.1,-7.53 a 11.66,11.66 0 0 1 0.09,-1.27 9.51,9.51 0 0 1 2.26,-1.88 c 1.56,-0.88 3.93,-1.41 4.52,0.84 0.73,2.8 0.15,5.79 0.34,8.63 a 1.36,1.36 0 0 0 2.72,0 47.63,47.63 0 0 0 -0.42,-7.84 z"
       fill="#7f3f98"
       id="path274" />
    <path
       d="m 116.58,150.85 a 1.07,1.07 0 0 0 -2.14,0 c -0.24,2.17 -0.32,4.38 -0.37,6.58 -1.95,-1.47 -4.93,-2.36 -7.07,-1.31 -2.38,1.17 -3.21,4.36 -3.16,6.78 0,2.62 1.33,5.34 3.91,6.31 a 6.83,6.83 0 0 0 6,-0.78 2.5,2.5 0 0 0 0.52,0.95 1.47,1.47 0 0 0 2.48,-1 c 0.05,-5.79 0.25,-11.78 -0.17,-17.53 z m -7.77,16.08 c -2.56,-0.6 -3.26,-3.34 -2.84,-5.66 0.42,-2.32 1.66,-3.72 4.2,-3.24 1.32,0.25 2.56,0.62 3.87,0.81 0,1.1 0,2.19 -0.07,3.27 0,0.8 -0.21,1.88 -0.34,3 -1.47,1.06 -2.81,2.29 -4.82,1.82 z"
       fill="#7f3f98"
       id="path276" />
    <path
       d="m 205.27,332 c -0.5,-2.52 -3.25,-2 -4.8,-1 a 8.93,8.93 0 0 0 -3.69,7 q -0.43,10.51 -0.88,21 c -0.17,4.14 0.08,8.75 -0.08,13.18 h -0.26 -0.76 c -0.15,-0.07 -0.31,-0.13 -0.45,-0.21 a 3.34,3.34 0 0 0 -3.47,0.38 h -0.07 c -2.58,0.07 -5.16,0.12 -7.74,0.13 q -8.7,0.06 -17.4,-0.3 c -10.59,-0.42 -20.95,-1.47 -31.55,-0.48 a 228.71,228.71 0 0 1 -35,0.19 c -4.66,-0.27 -9.37,10.67 -4.13,11 6.93,0.4 13.86,0.81 20.8,0.73 6.94,-0.08 14,-1.13 21.06,-1.46 13.64,-0.63 27.46,1.37 41.15,1.32 4.05,0 8.68,0.38 13,0 3,0.89 6.4,0.92 8.91,-0.8 2.79,-1.91 3.58,-4.87 3.85,-8 a 19.76,19.76 0 0 0 1.16,-3.89 c 2.33,-12.47 2.83,-26.29 0.35,-38.79 z"
       opacity="0.15"
       id="path278" />
    <path
       d="m 398.86,354.3 c -0.47,-7.52 -0.57,-15.05 -0.4,-22.58 a 2.72,2.72 0 0 0 -3.31,-3 l -2.59,0.48 c -4.21,0.8 -7.75,10.93 -2.8,10.87 -0.07,5.72 0,11.43 0.34,17.15 0.25,4.7 1.33,9.95 1.46,14.95 -13.49,0.92 -27,1.34 -40.53,1.17 q -11.34,-0.14 -22.67,-0.79 c -7.27,-0.42 -14.51,-1.41 -21.78,-0.71 -4.45,0.43 -8.26,11.39 -2,10.79 7.11,-0.68 14.54,0.62 21.65,1 q 11.32,0.62 22.67,0.7 c 14.81,0.12 29.6,-0.45 44.35,-1.63 3.37,-0.27 5.6,-3.45 6.27,-6.55 C 401,369 399.3,361.5 398.86,354.3 Z"
       opacity="0.15"
       id="path280" />
    <path
       d="m 287.64,360.85 c -0.31,-4.87 0.33,-9.73 -0.11,-14.61 a 73.73,73.73 0 0 0 -3,-15.22 c -1.82,-5.82 -9.67,2.85 -8.33,7.16 a 66.54,66.54 0 0 1 2.8,22.52 52.89,52.89 0 0 0 0,5.77 c 0.08,1 1,3.67 0.65,4.48 l 0.54,0.22 a 14.33,14.33 0 0 1 -3.13,0.31 c -1.93,0.11 -3.89,0 -5.82,0.08 L 248,371.9 c -7.75,0.11 -17.64,1.9 -25,-0.88 -4.73,-1.78 -10.37,8.75 -6,10.4 9.31,3.51 21,1.55 30.75,1.4 l 16.49,-0.24 c 4.69,-0.07 10,0.5 14.61,-0.8 a 13.39,13.39 0 0 0 8.51,-7.61 c 1.99,-4.56 0.58,-8.61 0.28,-13.32 z"
       opacity="0.15"
       id="path282" />
    <path
       d="m 200.05,371.44 c -0.43,2 0,4.08 -4.8,5.09 -1.18,0.25 -94.83,3.25 -102.88,-1 -2.91,-1.53 -2.86,-5.56 -2.73,-7.89 0.09,-1.52 0.18,-40.74 1.78,-42.46 1.6,-1.72 51.22,-1.18 51.22,-1.18 l 50.61,0.36 c 2.28,0 5.23,5.68 5.46,8.16 0.23,2.48 1.77,36.94 1.34,38.92 z"
       fill="#f7941f"
       id="path284" />
    <path
       d="m 280.62,327.62 c -0.2,-1 -3,-3.1 -5.28,-3.62 -0.56,-0.12 -56.31,-0.65 -57,-0.52 -4.6,0.92 -4.64,8.92 -4.6,9.69 0,0 0.56,36.73 0.73,38.29 0.07,0.7 3.64,4.59 4.6,5.18 1.77,1.07 53.41,0.5 55.85,0.34 6.82,-0.47 6.63,-3.91 6.73,-5.19 0.1,-1.28 -0.82,-43.15 -1.03,-44.17 z"
       fill="#f7941f"
       id="path286" />
    <path
       d="m 297.12,372.59 c 0.24,1 1.44,4.13 4.14,4.37 3.54,0.32 86.55,0.34 88.2,0.39 4.74,0.14 4.79,-6.28 4.74,-7.06 l -0.31,-38.16 c -0.19,-1.56 -2.32,-6.63 -3.46,-7.22 -2.09,-1.08 -5,-0.74 -8.91,-0.78 -4.61,-0.05 -79.69,-0.32 -81,0 a 4.14,4.14 0 0 0 -3.49,4 c -0.03,1.3 -0.15,43.44 0.09,44.46 z"
       fill="#f7941f"
       id="path288" />
    <path
       d="m 279.53,326 a 98,98 0 0 0 -31.47,-3.4 c -5.41,0.22 -10.8,0.7 -16.19,1.16 -4.1,0.35 -9.59,-0.06 -13.25,2.09 -7.55,4.42 -5,16.35 -4.45,23.42 q 0.59,8.2 1.68,16.37 c 0.34,2.55 -0.31,5.92 1.71,7.75 1.18,1.08 3.21,-0.83 3.9,-1.56 l 0.28,-0.29 c 1.1,-1.17 2.41,-4.28 1.14,-5.74 l -0.22,-0.24 -0.08,-0.09 c -0.5,-6.57 -1.45,-13.2 -1.92,-19.8 -0.16,-2.26 -0.3,-4.51 -0.4,-6.77 0,-1.17 -0.82,-5.11 -0.2,-5.8 1,-1.16 7.61,-1 9.6,-1.18 15.82,-1.35 31.34,-2.14 46.77,2.32 3.25,0.97 7.1,-7.04 3.1,-8.24 z"
       fill="#ffffff"
       opacity="0.25"
       id="path290" />
    <path
       d="m 390.29,325.24 c -12.35,0.28 -24.7,0.71 -37.05,0.8 -12.35,0.09 -24.52,-1.56 -36.81,-2.35 -7.29,-0.47 -19.45,-1.69 -19.07,8.95 0.09,2.47 0.36,4.94 0.68,7.41 -2.69,10.77 -1,23.15 0.74,33.44 0.7,4.24 6.08,-1.43 6.27,-3.48 a 169.73,169.73 0 0 0 0.76,-21 c -0.12,-3.5 -0.35,-7 -0.7,-10.48 -0.05,-0.5 -0.16,-1.1 -0.28,-1.73 a 17.52,17.52 0 0 1 2.86,-4.83 q 0.19,-0.24 0.36,-0.48 c 1.3,0.13 2.52,0.3 3.39,0.35 3.47,0.18 6.92,0.48 10.37,0.8 7.22,0.67 14.44,1.44 21.69,1.62 14.54,0.38 29.16,-0.42 43.69,-0.75 3.5,-0.11 6.9,-8.35 3.1,-8.27 z"
       fill="#ffffff"
       opacity="0.25"
       id="path292" />
    <path
       d="m 395.23,365.4 c -0.08,-10.68 0.29,-21.46 -0.21,-32.13 -0.14,-3.11 -1.46,-7.81 -4.29,-9.45 -3.55,-2.06 -9.52,-0.83 -13.64,-0.88 -21.23,-0.25 -42.51,-0.94 -63.73,-0.52 -3.78,0.07 -15,-1.59 -17,3 -1.46,3.35 -0.61,9.14 -0.56,12.84 q 0.14,10.09 0.3,20.2 c 0.07,4.11 -0.23,8.49 0.33,12.58 a 0.81,0.81 0 0 0 0,0.22 c 1,6.22 3.31,6.67 9.16,7 5.85,0.33 11.76,0.64 17.64,0.67 10.1,0.06 20.19,0 30.29,0 9.13,0 18.25,0.06 27.37,-0.18 3.79,-0.1 12,0.85 13.87,-3.46 1.16,-2.62 0.49,-6.95 0.47,-9.89 z m -5.37,10.77 a 16.74,16.74 0 0 1 -4,0.4 c -8.09,0.38 -16.18,0.37 -24.28,0.38 h -34.93 c -3.66,0 -7.31,0 -11,-0.15 -3.69,-0.15 -7.24,-0.24 -10.87,-0.44 a 17.59,17.59 0 0 1 -3,-0.2 c -3.13,-0.77 -3.42,-2.68 -4,-5.31 0,0 0,-0.06 0,-0.1 -0.43,-3.09 -0.08,-6.46 -0.09,-9.57 q 0,-8.46 0,-16.93 c 0,-3.89 -0.13,-7.81 0,-11.69 0.09,-2.17 -0.26,-6.28 2.16,-7.41 1.87,-0.88 5.57,-0.32 7.6,-0.38 19.47,-0.62 39,0.08 58.48,0.29 l 12.8,0.14 h 3.57 c 1.84,0 5.12,-0.54 6.86,0.35 1.74,0.89 2.78,3.59 3.24,5.34 0.69,2.64 0.39,5.55 0.42,8.28 q 0.09,8.19 0.16,16.38 c 0,4.38 0.06,8.76 0.12,13.14 0,0.81 0.06,1.64 0.05,2.44 -0.05,2.75 -0.15,4.12 -3.29,5.04 z"
       fill="#1e1e1e"
       id="path294" />
    <path
       d="m 282.32,356.56 c -0.35,-9.2 -1,-18.46 -1,-27.67 a 0.77,0.77 0 0 0 0,-0.27 c -0.68,-7 -10.18,-5.69 -15.18,-5.78 q -13.45,-0.22 -26.93,-0.36 c -6.92,-0.08 -15.53,-1.71 -22.09,0.62 -5.57,2 -4.43,11.2 -4.38,16 0.09,8.63 0.06,17.27 0.27,25.9 0.07,2.8 -0.5,7 1,9.34 1.95,3.17 8.39,3.83 11.66,4.07 a 248.44,248.44 0 0 0 27.15,0.46 c 5.22,-0.19 10.43,-0.59 15.65,-0.76 3.94,-0.12 8.94,0.89 12.13,-2 1.92,-1.75 2.19,-3.83 2.17,-6.24 -0.02,-4.43 -0.29,-8.87 -0.45,-13.31 z M 275,375.88 c -4.17,0.26 -8.44,0 -12.63,0.24 -7.71,0.38 -15.38,0.79 -23.09,0.5 -4.26,-0.17 -8.54,-0.19 -12.79,-0.42 a 27.61,27.61 0 0 1 -7.31,-1.37 c -3.75,-1.28 -3.56,-4.14 -3.78,-7.57 -0.37,-5.81 -0.24,-11.68 -0.32,-17.51 -0.08,-5.63 -0.5,-11.37 -0.22,-17 0.12,-2.61 0.52,-6.59 3.22,-7.72 2,-0.81 4.85,-0.56 7,-0.61 3.84,-0.08 7.68,0.06 11.52,0.09 l 20.67,0.2 12.93,0.14 c 3.31,0 9,-0.71 9.77,4 v 0 c -0.09,13.68 0.72,27.36 0.65,41 -0.07,3.53 -1.62,5.77 -5.62,6.03 z"
       fill="#1e1e1e"
       id="path296" />
    <path
       d="M 187.63,325.27 164,324.19 c -1.25,-0.05 -2.5,1 -3.41,2.29 l -7.07,-0.46 -39.82,-2.6 c -4.8,-0.32 -11.81,-2.19 -16.21,0.51 -3.21,2 -4.62,5.7 -5.14,9.25 -1.58,10.82 -1.67,22.12 -1.53,33.13 a 4.49,4.49 0 0 0 -0.54,3.06 c 0.24,0.9 0.49,1.79 0.74,2.69 1.26,4.58 6.4,-2.14 6.36,-4.49 -0.13,-7.67 0,-15.34 0.35,-23 0.2,-3.82 0.43,-7.66 0.78,-11.48 0.3,-3.19 1.59,-2.08 4.13,-1.95 2,0.1 4,0.26 6,0.39 l 48.78,3.19 23.9,1.57 c 5.23,0.34 11.48,1.94 14.19,-3.93 2.9,-6.48 -3.12,-6.87 -7.88,-7.09 z"
       fill="#ffffff"
       opacity="0.25"
       id="path298" />
    <path
       d="m 200.79,365.94 a 0.68,0.68 0 0 0 0,-0.14 c 1.1,-8.06 -0.6,-17 -1,-25.09 -0.23,-4.82 1,-12.28 -3.41,-15.8 -3.39,-2.67 -10,-1.5 -14.19,-1.72 -20.21,-1.09 -40.49,0.75 -60.71,-0.15 -5,-0.22 -9.91,-0.47 -14.88,-0.48 -4,0 -8.27,-0.48 -12.2,0.36 -5.34,1.15 -5.16,3.74 -5.3,8.48 -0.31,10.31 -0.34,20.63 -0.45,30.94 0,3.36 -0.58,7.28 0.64,10.45 2,5.28 7.51,5 12.39,5.54 12.11,1.27 24.66,0.26 36.85,0.26 13.94,0 27.92,0.33 41.85,-0.2 5.19,-0.2 11.34,0.34 16.4,-0.92 5.48,-1.37 3.63,-7.4 4.01,-11.53 z m -1.59,4.68 c -0.26,3.74 -2.24,5 -5.6,5.21 -4.93,0.28 -9.87,0.48 -14.81,0.63 -11.39,0.34 -22.8,0.09 -34.19,0.07 -9,0 -18,-0.14 -27,0 -6.88,0.12 -13.65,0.17 -20.47,-0.92 -4,-0.64 -6.26,-2.46 -6.44,-6.93 0,-1.11 0,-2.26 0.07,-3.37 0.15,-9.28 0.23,-18.56 0.42,-27.83 0.06,-2.7 -0.39,-6.19 0.18,-8.83 1.07,-5 7.85,-3.87 11.68,-3.83 4.61,0 9.21,0.06 13.82,0.28 18.7,0.89 37.43,0 56.14,0.12 3.76,0 7.51,0.09 11.27,0.27 3.76,0.18 9.73,-1.05 12.15,2.71 2.2,3.42 1.34,8.36 1.56,12.21 0.22,3.85 0.58,8 0.83,12 0.27,4.2 1.14,9 0.56,13.22 a 0.43,0.43 0 0 0 0,0.12 c -0.27,1.62 -0.05,3.25 -0.17,4.87 z"
       fill="#1e1e1e"
       id="path300" />
    <path
       d="M 29.8,287.41 C 26.11,282 18.54,287 18,292.24 c -0.58,6 7,10.78 11.69,6.53 1.36,-1.21 -0.67,-3.25 -2,-2 -3,2.81 -7.86,-0.87 -7.7,-4.4 0.17,-3.79 5.11,-6.57 7.94,-3.54 0.89,1 2.6,-0.3 1.84,-1.42 z"
       fill="#7f3f98"
       id="path302" />
    <path
       d="m 44.56,294.07 a 1.44,1.44 0 0 0 1.41,-1.4 c 0,-8 -10.62,-9.62 -13.57,-2.48 -1.38,3.36 -0.78,7.24 2.33,9.41 3.11,2.17 7.67,1.25 10.43,-1.34 1.07,-1 -0.29,-2.49 -1.49,-1.93 -2.11,1 -4.08,2.46 -6.53,1.52 a 4.36,4.36 0 0 1 -2.81,-3.54 c 3.09,0.92 7.27,0.1 10.23,-0.24 z M 43,291.42 c -1.61,0.16 -3.22,0.29 -4.84,0.39 a 25.48,25.48 0 0 0 -3.73,0.29 c 1.32,-4.8 7.57,-5.29 8.57,-0.68 z"
       fill="#7f3f98"
       id="path304" />
    <path
       d="M 61.53,289.89 A 3.67,3.67 0 0 0 59,286.33 c -1.89,-0.58 -5.58,0 -7.27,1.78 a 6.33,6.33 0 0 0 -0.61,-1.95 0.67,0.67 0 0 0 -1.15,0 c -0.81,1.76 -0.59,3.7 -0.67,5.61 a 64.28,64.28 0 0 0 -0.35,7.2 c 0.09,1.33 2.11,1.77 2.44,0.33 a 30.75,30.75 0 0 0 0.45,-7.05 c 0,-0.65 0,-1.33 0,-2 2.08,-0.78 4.61,-3 6.42,-1 1,1.17 0.45,3.12 0.29,4.61 a 39.69,39.69 0 0 0 -0.32,4.87 c 0,2.21 3.22,1.76 3.12,0 -0.26,-2.97 0.39,-5.9 0.18,-8.84 z"
       fill="#7f3f98"
       id="path306" />
    <path
       d="m 69.47,296.66 c -1.4,1 -1.35,-3.41 -1.35,-3.75 0,-1.32 0,-2.63 0,-3.94 a 2.56,2.56 0 0 0 2.61,-0.62 1.41,1.41 0 0 0 0,-1.92 c -0.71,-0.81 -1.58,-0.7 -2.52,-0.64 a 4.89,4.89 0 0 0 -1.18,-3.35 0.54,0.54 0 0 0 -0.84,0.11 9.77,9.77 0 0 0 -0.7,3.17 10.09,10.09 0 0 0 -1.1,0 1.14,1.14 0 0 0 -0.57,2.11 6.41,6.41 0 0 0 1.56,0.61 c 0,0.43 0,0.86 -0.06,1.28 a 25.62,25.62 0 0 0 0.06,6.43 c 0.52,2.82 3.25,5.12 5.8,2.77 1.22,-1.08 -0.36,-3.22 -1.71,-2.26 z"
       fill="#7f3f98"
       id="path308" />
    <path
       d="m 84.28,297 a 5.1,5.1 0 0 1 -8.39,-2.86 38.17,38.17 0 0 0 7.47,0.22 c 1.74,0 3.69,0 3.41,-2.32 a 6.84,6.84 0 0 0 -10.09,-5.33 c -4.14,2.07 -4.13,8.2 -1.53,11.46 2.6,3.26 8,3.76 10.94,0.63 A 1.28,1.28 0 0 0 84.28,297 Z m -4.47,-8.66 a 4.35,4.35 0 0 1 4.2,3.32 h -1.42 l -2.58,0.05 c -1.4,0 -2.8,-0.08 -4.18,0 a 4,4 0 0 1 3.98,-3.39 z"
       fill="#7f3f98"
       id="path310" />
    <path
       d="m 97.66,286.16 c -1.25,-0.85 -3.17,0.09 -4.28,0.85 a 8.74,8.74 0 0 0 -1,0.78 3.35,3.35 0 0 0 -1,-1.66 0.61,0.61 0 0 0 -0.94,0.12 c -1.1,1.77 -0.3,4.37 -0.33,6.38 0,2.29 -0.76,4.81 0,7 a 1.26,1.26 0 0 0 2.47,-0.33 48.45,48.45 0 0 0 0.21,-7.62 c 0,-0.39 0,-0.82 0,-1.25 a 17.8,17.8 0 0 0 1.63,-1 6.78,6.78 0 0 1 1.78,-0.85 3.66,3.66 0 0 0 1.74,-0.71 1.12,1.12 0 0 0 -0.28,-1.71 z"
       fill="#7f3f98"
       id="path312" />
    <path
       d="m 533.7934,26.21424 a 5.84,5.84 0 0 0 -6.06,-0.74 c -1.49,0.67 -3.22,2.26 -2.71,4.09 0.51,1.83 2.78,2.58 4.38,3.11 1.6,0.53 4.35,1.2 3.6,3.5 -1.13,3.44 -4.92,1 -6.4,-0.67 -1.16,-1.27 -3.08,0.65 -1.88,1.88 1.78,1.83 4.05,3.27 6.72,2.86 a 4.86,4.86 0 0 0 4.16,-3.87 4.53,4.53 0 0 0 -2.6,-4.65 21.71,21.71 0 0 0 -3.41,-1.24 c -1.68,-0.57 -3.14,-2.36 -0.54,-3.2 a 4.46,4.46 0 0 1 3.7,0.71 c 1.17,0.71 2.07,-1 1,-1.78 z"
       fill="#7f3f98"
       id="path314" />
    <path
       d="m 552.0434,31.13424 a 5.54,5.54 0 0 0 -5.4,-5.54 7.22,7.22 0 0 0 -5.44,2.45 3.65,3.65 0 0 0 -0.91,-1.39 0.18,0.18 0 0 0 -0.25,0 c -1.8,1.81 -1,4.6 -1,7 q 0.06,5.51 0.1,11 a 1.24,1.24 0 0 0 2.47,0 c 0,-1.77 0,-3.55 -0.08,-5.33 a 6.26,6.26 0 0 0 6.29,0.64 c 3.11,-1.5 4.36,-5.57 4.22,-8.83 z m -4.84,6.08 c -1.8,1.22 -3.84,0.35 -5.1,-1.15 a 1.17,1.17 0 0 0 -0.62,-0.39 v -2 c 0,-1.07 0.12,-2.23 0.11,-3.34 1.18,-0.84 2.14,-2 3.62,-2.36 a 3.37,3.37 0 0 1 4.41,3.53 c -0.05,1.89 -0.75,4.55 -2.42,5.71 z"
       fill="#7f3f98"
       id="path316" />
    <path
       d="m 565.9334,32.21424 c -0.06,-1.58 0.1,-3.73 -0.8,-5.14 -1.72,-2.7 -6.24,-1.85 -8.48,-0.43 a 1,1 0 0 0 -0.51,0.88 c 0,0.16 0,0.32 0,0.48 a 0.4,0.4 0 0 0 0.29,0.38 c 0.94,0.29 1.47,-0.14 2.41,-0.37 2.24,-0.54 4,-0.18 4.55,2.33 a 11.88,11.88 0 0 1 0.21,1.89 6.19,6.19 0 0 0 -5.47,-1.5 c -2.13,0.65 -3.22,3 -3,5.13 a 4.49,4.49 0 0 0 4.35,4.19 7.15,7.15 0 0 0 4,-1.29 c 0,0.12 0,0.24 0,0.36 a 1.22,1.22 0 0 0 2.44,0 40.91,40.91 0 0 0 0.01,-6.91 z m -8.23,3 c 0.22,-3.28 3.74,-1.5 5.95,-1.54 q 0,0.87 -0.09,1.74 c -1,0.71 -1.78,1.77 -3.09,2.07 a 2.1,2.1 0 0 1 -2.77,-2.27 z"
       fill="#7f3f98"
       id="path318" />
    <path
       d="m 581.5034,27.86424 c 0.4,-3 -4,-3.14 -5.93,-2.61 a 7.36,7.36 0 0 0 -5.64,6.06 c -0.39,3.08 0.2,6.5 3.24,8 2.49,1.2 6.62,0.46 7.8,-2.28 a 1.14,1.14 0 0 0 -1.55,-1.55 c -1.51,0.7 -2.67,2 -4.53,1.5 -2.31,-0.66 -2.47,-3.47 -2.08,-5.44 a 4.65,4.65 0 0 1 3.84,-3.6 c 1.61,-0.37 2.58,0.09 4,0.56 a 0.64,0.64 0 0 0 0.79,-0.61 z"
       fill="#7f3f98"
       id="path320" />
    <path
       d="m 595.2334,35.85424 c -3.17,2.39 -7.68,2.22 -8.19,-2.21 a 35,35 0 0 0 8.24,-0.52 c 1.74,-0.36 2.1,-1.91 1.72,-3.54 -1,-4.2 -6.18,-5.18 -9.48,-3.12 -3.58,2.23 -4.37,7.56 -2.08,11 2.64,4 7.72,2.69 11,0.43 1.28,-0.85 0,-2.96 -1.21,-2.04 z m -5.61,-7.37 c 1.49,-0.62 5,-0.1 4.83,2.09 -2.27,0.6 -4.85,0.47 -7.26,0.66 a 4,4 0 0 1 2.43,-2.75 z"
       fill="#7f3f98"
       id="path322" />
    <path
       d="m 600.8734,33.56424 c 1.5,0.6 3.3,0.07 4.87,0.15 a 1.48,1.48 0 0 0 1.48,-1.48 1.83,1.83 0 0 0 -0.05,-0.4 1.49,1.49 0 0 0 -1.82,-1 c -1.5,0.5 -3.36,0.46 -4.66,1.44 a 0.74,0.74 0 0 0 0.18,1.32 z"
       fill="#7f3f98"
       id="path324" />
    <path
       d="m 612.9334,27.38424 c -0.1,-2.36 0.2,-4.919999 -1.5,-6.669999 a 0.23,0.23 0 0 0 -0.35,0 c -1.45,2.16 -0.57,5.059999 -0.47,7.549999 0.13,3.39 0.06,6.78 0.17,10.17 a 1.16,1.16 0 0 0 2.31,0 v -0.21 a 6.82,6.82 0 0 0 4.91,1.37 c 3,-0.57 4.68,-3.54 5,-6.37 0.58,-6.14 -5.56,-8.85 -10.07,-5.84 z m 4.58,9.75 c -1.76,0.24 -3,-1 -4.32,-2 v 0 c 0,-1.87 0,-3.74 -0.14,-5.61 a 6.24,6.24 0 0 1 4.54,-1.29 4.13,4.13 0 0 1 3.11,4.35 c -0.06,1.95 -1.07,4.26 -3.19,4.55 z"
       fill="#7f3f98"
       id="path326" />
    <path
       d="m 631.4434,33.21424 a 28.7,28.7 0 0 1 6.48,0.31 1.23,1.23 0 0 0 1.49,-1.49 c -0.55,-2.9 -3.14,-5.94 -6.26,-6.09 -3.12,-0.15 -5.68,2.52 -6.36,5.49 0,0.22 -0.07,0.45 -0.11,0.67 a 0.6,0.6 0 0 0 -0.08,0.21 c 0,0.08 0,0.16 0,0.25 a 0.73,0.73 0 0 0 0,0.36 7.4,7.4 0 0 0 3.13,6.87 c 3.17,2 6.17,0.2 8.73,-1.86 1.19,-0.95 -0.5,-2.65 -1.68,-1.68 -1.64,1.35 -3.71,2.8 -5.8,1.4 a 4.84,4.84 0 0 1 -1.91,-4.26 c 0.8,-0.07 1.61,-0.18 2.37,-0.18 z m 2,-4.69 a 4.76,4.76 0 0 1 2.91,2.39 25.58,25.58 0 0 0 -6.88,0.28 c 0.67,-1.65 2.08,-3.08 3.99,-2.7 z"
       fill="#7f3f98"
       id="path328" />
    <path
       d="m 647.9334,36.78424 c -2.08,1.49 -2.41,-2.8 -2.49,-5.41 a 5.76,5.76 0 0 0 2.3,0 1.24,1.24 0 0 0 0,-2.37 5.68,5.68 0 0 0 -2.37,-0.14 38.44,38.44 0 0 0 -0.32,-6.789999 c -0.15,-0.73 -1.18,-0.62 -1.38,0 a 29.78,29.78 0 0 0 -0.72,6.889999 9.52,9.52 0 0 0 -1.49,0.2 0.86,0.86 0 0 0 0,1.65 11.48,11.48 0 0 0 1.51,0.29 c 0.22,5.5 1.65,10.76 6,7.49 1.12,-0.77 0.09,-2.61 -1.04,-1.81 z"
       fill="#7f3f98"
       id="path330" />
    <path
       d="m 667.5734,26.33424 c -0.81,2.81 -1.64,5.62 -2.44,8.44 -1.41,-3 -2.82,-5.95 -4.07,-9 a 1.11,1.11 0 0 0 -2,-0.27 51.71,51.71 0 0 0 -3.85,8.51 31.34,31.34 0 0 0 -3.56,-7.89 0.74,0.74 0 0 0 -1.34,0.57 c 0.79,4.08 2.41,8.09 3.52,12.1 a 1.35,1.35 0 0 0 2.59,0 c 1.09,-3.33 2.4,-6.57 3.66,-9.83 1.42,3.35 2.7,6.74 4,10.13 a 1.4,1.4 0 0 0 2.68,0 c 1.23,-4 2.33,-8 3.48,-12 a 1.41,1.41 0 0 0 -2.67,-0.76 z"
       fill="#7f3f98"
       id="path332" />
    <path
       d="m 683.2134,37.30424 c -3.7,3 -6.76,-0.16 -7.56,-3.66 a 56.21,56.21 0 0 0 7.11,-0.08 c 1.54,-0.07 3.11,-0.05 3,-2 -0.17,-4.41 -4.69,-7.619999 -8.77,-6 -4.08,1.62 -5.1,7 -3.27,10.69 2.14,4.29 7.35,5.86 11.16,2.75 1.25,-0.97 -0.47,-2.67 -1.67,-1.7 z m -3.56,-9.63 a 3.68,3.68 0 0 1 2.93,2.15 8.46,8.46 0 0 1 0.65,1.48 15,15 0 0 0 -1.75,0.07 c -2,0.17 -4,0.24 -6,0.54 -0.03,-2.38 1.19,-4.45 4.17,-4.24 z"
       fill="#7f3f98"
       id="path334" />
    <path
       d="m 698.5234,33.60424 c 1.5,-0.11 4.06,0 4.12,-2 0.06,-2 -2.15,-4 -3.62,-5 a 6.41,6.41 0 0 0 -5.84,-0.84 c -4.16,1.67 -5.59,7.45 -3.4,11.14 2.19,3.69 7.67,4.76 10.75,1.36 a 1.2020815,1.2020815 0 0 0 -1.7,-1.7 4.44,4.44 0 0 1 -7.13,-1.86 4.51,4.51 0 0 1 -0.21,-0.93 c 2.24,0.44 5.16,-0.03 7.03,-0.17 z m -6.7,-2.57 c 0.61,-1.72 2,-3.14 3.86,-2.87 a 5.59,5.59 0 0 1 3.22,1.92 4,4 0 0 0 0.72,0.67 0.37,0.37 0 0 0 -0.2,0 8.43,8.43 0 0 1 -2.26,0.19 c -1.55,0.12 -3.58,-0.14 -5.34,0.09 z"
       fill="#7f3f98"
       id="path336" />
    <path
       d="m 717.5834,38.39424 a 30.88,30.88 0 0 1 -0.64,-4.77 c 0,-1.23 0.12,-2.46 0,-3.69 a 5,5 0 0 0 -2.58,-4.17 c -2.6,-1.24 -5,0.71 -6.52,3 a 8.23,8.23 0 0 0 -0.51,-2 0.92,0.92 0 0 0 -1.77,0 c -0.52,1.94 -0.2,4.11 -0.16,6.12 a 34.71,34.71 0 0 0 0.2,6.21 1.19,1.19 0 0 0 2.29,0 23.87,23.87 0 0 0 0.16,-6.21 c 0,-0.55 0,-1.12 0,-1.7 a 12.67,12.67 0 0 0 1.74,-1.38 c 1.28,-1.19 3.84,-3 4.58,-0.19 0.36,1.38 0,3.07 -0.14,4.48 a 30.65,30.65 0 0 0 -0.06,4.79 1.75,1.75 0 1 0 3.41,-0.49 z"
       fill="#7f3f98"
       id="path338" />
    <path
       d="m 956.6834,238.39424 q -0.25,-9.91 -0.52,-19.85 c -0.07,-2.63 -2.15,-3.65 -4.41,-2.54 a 8.69,8.69 0 0 0 -4.24,7.35 l 0.45,17 q 0.09,3.78 0.2,7.56 c 0,1.24 0.06,2.48 0.1,3.73 -6.43,1.84 -14.29,1.5 -20.47,1.42 -8.28,-0.11 -16.55,-0.81 -24.83,-0.9 -16.42,-0.16 -33.16,2.27 -49.5,0.34 -4.62,-0.54 -9.45,10.35 -4.13,11 12.77,1.51 26,0.19 38.77,-0.18 12.5,-0.36 24.91,0.72 37.39,0.75 a 99.69,99.69 0 0 0 17.35,-1.27 c 5.39,-0.94 10.76,-1.89 13.17,-7.33 2.21,-4.99 0.81,-11.79 0.67,-17.08 z"
       fill="#1e1e1e"
       opacity="0.15"
       id="path340" />
    <path
       d="m 783.8234,213.81424 c -0.58,-7.09 -9,0.18 -8.65,4.8 0.54,6.64 1.43,13.25 1.77,19.91 a 41.17,41.17 0 0 1 -0.61,11.52 c -0.54,2.32 -0.68,2.83 -2.91,3.44 a 30.63,30.63 0 0 1 -5.71,0.77 c -15.22,1.22 -30.88,-0.65 -46,-2.15 -4.63,-0.47 -9.43,10.45 -4.13,11 9.8,1 19.6,1.86 29.45,2.21 8.6,0.3 20,1.69 28.06,-2.24 7.78,-3.81 10,-13.66 10.5,-21.54 0.6,-9.27 -1.02,-18.54 -1.77,-27.72 z"
       fill="#1e1e1e"
       opacity="0.15"
       id="path342" />
    <path
       d="m 650.2334,214.60424 c -0.35,-7.09 -8.88,0.19 -8.65,4.8 0.31,6.33 0.5,12.67 0.51,19 q 0,4.27 -0.08,8.56 c 0,1.58 -0.08,3.17 -0.13,4.75 0,0.15 0,0.48 -0.1,0.87 -5.59,1.14 -11.74,1.3 -17.15,1.58 -7.39,0.37 -14.78,0.32 -22.16,0.06 -14.86,-0.52 -29.66,-1.87 -44.51,-2.45 -4.67,-0.18 -9.34,10.78 -4.13,11 24.61,1 49.26,4.07 73.9,1.88 5.24,-0.47 11.65,-0.52 16.58,-2.47 4.35,-1.72 5.78,-6.22 6,-10.5 a 342.27,342.27 0 0 0 -0.08,-37.08 z"
       fill="#1e1e1e"
       opacity="0.15"
       id="path344" />
    <path
       d="m 842.5634,210.28424 c 0.43,-2 1.06,-4.57 5.82,-5.58 1.18,-0.25 90.73,-1.09 96.36,0.49 5.63,1.58 6.36,7.07 6.22,9.4 -0.09,1.51 0.18,33 -0.16,36 -0.16,1.36 -0.22,4.22 -2.27,5.37 -3.74,2.1 -99.11,1.72 -101.18,0.79 -2.07,-0.93 -4.23,-5.11 -4.45,-7.59 -0.22,-2.48 -0.77,-36.89 -0.34,-38.88 z"
       fill="#f7941f"
       id="path346" />
    <path
       d="m 710.8434,253.88424 c 0.21,1 3.09,3.32 5.34,3.84 0.56,0.13 55.93,1.43 58.48,-0.39 3.33,-2.38 3.12,-8 3.08,-8.78 0,0 0.16,-37.66 0,-39.22 -0.07,-0.7 -2.61,-3.65 -3.58,-4.24 -1.76,-1.08 -50.41,-0.58 -55.06,-0.77 -7.5,-0.3 -8.17,3.84 -8.28,5.11 -0.11,1.27 -0.18,43.43 0.02,44.45 z"
       fill="#f7941f"
       id="path348" />
    <path
       d="m 644.4434,209.14424 a 6.71,6.71 0 0 0 -4.14,-4.37 c -4.31,-1.36 -83.18,-1.44 -90.92,-0.52 -3.9,0.46 -3.07,6.41 -3,7.19 l -0.69,38.15 c 0.19,1.57 2.55,6.82 3.69,7.41 2.09,1.08 85,1.66 90.85,0.68 4.73,-0.78 3.65,-2.85 3.77,-4.13 0.12,-1.28 0.68,-43.34 0.44,-44.41 z"
       fill="#f7941f"
       id="path350" />
    <path
       d="m 946.7034,207.68424 a 281.06,281.06 0 0 0 -43.77,-2.35 c -6.75,0.17 -13.49,0.68 -20.24,0.66 -7.22,0 -14.41,-1 -21.63,-0.9 -4.7,0.06 -11.48,-0.2 -15,3.46 -3.52,3.66 -3.26,10.86 -3.77,15.74 -0.61,5.89 -1.22,11.84 -0.43,17.73 0.58,4.39 2,11.34 6.83,12.68 3.26,0.9 7.1,-7.13 3.09,-8.23 -3.75,-1 -3.85,-11.77 -3.82,-14.64 a 132.59,132.59 0 0 1 1.36,-15.28 c 0,-0.13 0.14,-1.31 0.28,-2.41 l 0.73,-0.15 c 3,0.24 6.39,-0.7 9.5,-0.66 5.67,0.07 11.33,0.71 17,0.85 10.84,0.27 21.67,-0.8 32.52,-0.7 a 280.53,280.53 0 0 1 31.6,2.1 c 0.28,0.71 0.92,1 2.06,0.69 l 1.37,-0.43 c 2.3,-0.72 6.61,-7.63 2.32,-8.16 z"
       fill="#ffffff"
       opacity="0.25"
       id="path352" />
    <path
       d="m 951.4334,209.69424 c -1.83,-5.19 -6.5,-5.1 -11.28,-5.66 -12.05,-1.4 -24.46,-0.89 -36.59,-0.9 -13.85,0 -27.73,-0.33 -41.58,0.15 -5.05,0.17 -11.35,-0.4 -16.24,1 -5.38,1.53 -3.54,7.36 -3.92,11.51 a 0.36,0.36 0 0 0 0,0.15 c -1.2,8 -0.17,16.87 0,25 0.09,4.73 -1,12.22 3.2,15.77 3.27,2.78 9.81,1.63 13.87,1.86 19.1,1.08 38.41,0.1 57.53,-0.13 9.45,-0.11 19.56,0.83 28.93,-0.38 5.61,-0.73 6.6,-2.76 6.6,-7.93 0,-9.88 0.1,-19.77 0.07,-29.65 0,-3.45 0.55,-7.55 -0.59,-10.79 z m -4.75,45.79 c -3.2,1.25 -7.9,0.4 -11.25,0.4 -4.75,0 -9.5,0.1 -14.24,0.16 -17.81,0.21 -35.63,0.59 -53.44,0.45 -3.72,0 -7.42,-0.14 -11.12,-0.31 -4.54,-0.2 -9.52,1 -11.89,-3.77 -1.62,-3.3 -1,-7.69 -1.13,-11.26 -0.3,-8 -1.6,-17.07 -0.39,-25 a 0.39,0.39 0 0 0 0,-0.14 c 0.24,-1.62 0,-3.25 0.13,-4.88 0.29,-3.82 2.21,-5 5.52,-5.22 4.67,-0.29 9.37,-0.52 14.05,-0.65 11.5,-0.29 23,0 34.53,0 9.21,0 18.42,0.06 27.63,0.27 6.51,0.14 13,0.13 19.42,1.33 5.44,1 5.33,5.95 5.32,10.49 0,9.15 0,18.3 -0.05,27.46 0.02,3.58 0.89,9.11 -3.09,10.67 z"
       fill="#1e1e1e"
       id="path354" />
    <path
       d="m 775.3634,208.07424 c -0.05,-0.69 -0.26,-1.76 -1,-2.09 -3.86,-1.76 -9,-1.63 -13.19,-1.72 a 95.94,95.94 0 0 0 -14.27,0.87 h -0.05 c -1.14,-0.13 -2.28,-0.27 -3.43,-0.39 -4.45,-0.45 -8.91,-0.81 -13.38,-0.94 -4.15,-0.11 -9.5,-0.74 -13.48,0.8 -7.38,2.85 -4.34,12.7 -4.3,18.7 0.07,10 0.82,20.56 -0.18,30.51 -0.58,5.85 5.92,2.3 6.31,-1.61 0.71,-7 0.28,-14.19 0.32,-21.23 0,-3.75 0.06,-7.52 0,-11.28 0,-2.44 -0.45,-5.15 -0.61,-7.74 a 55.88,55.88 0 0 1 6.89,0 c 3.19,0.05 6.38,0.22 9.56,0.46 6.39,0.49 12.74,1.31 19.09,2.11 6.15,0.83 22.41,4.74 21.72,-6.45 z"
       fill="#ffffff"
       opacity="0.25"
       id="path356" />
    <path
       d="m 643.6434,207.14424 c -6.64,-2.11 -13.34,-1.81 -20.23,-1.78 -8.09,0.05 -16.18,0 -24.28,0 -15.92,-0.1 -31.85,-0.29 -47.78,-0.45 -2.7,0 -4.93,3.44 -4.79,5.92 0.42,7.63 0.79,15.25 0.88,22.88 -0.56,6.41 -0.49,12.94 -0.57,19.18 0,2 1.65,2.66 3.31,1.91 2,-0.91 3,-3.48 3.18,-5.51 0.57,-7.08 0.68,-14.08 0.57,-21.08 0.67,-5.47 2.1,-10.67 5.06,-14.92 q 17.57,0.18 35.13,0.32 11.65,0.07 23.31,0 c 7.11,0 14.84,-0.86 21.73,1.32 3.6,1.15 7.77,-6.72 4.48,-7.79 z"
       fill="#ffffff"
       opacity="0.25"
       id="path358" />
    <path
       d="m 645.3734,242.82424 c 0,-7 0,-13.9 -0.05,-20.84 0,-4.13 0.36,-8.54 -0.16,-12.66 a 0.52,0.52 0 0 0 0,-0.18 c -0.71,-5.67 -4.24,-5.43 -9.19,-5.73 -5.9,-0.36 -11.82,-0.65 -17.74,-0.67 -10.22,0 -20.45,0 -30.67,0 -9.33,0 -18.66,0 -28,0.2 -4,0.1 -12.28,-0.92 -13.94,3.88 -0.95,2.74 -0.4,7 -0.46,9.89 -0.2,10.65 -1,21.47 -0.63,32.11 0.15,4.11 0.95,8.89 5.47,9.74 4.52,0.85 9.63,0.22 14.2,0.27 21.38,0.25 42.83,0.95 64.2,0.5 3.83,-0.08 14.53,1.53 16.4,-3.27 1.38,-3.52 0.57,-9.47 0.57,-13.24 z m -1.63,-23.61 c -0.05,5.67 -0.13,11.34 -0.2,17 -0.06,4.14 0,8.29 -0.19,12.43 a 21.5,21.5 0 0 1 -0.42,5.22 c -1.12,3.72 -4.79,2.87 -7.92,3 -19.63,0.71 -39.34,0 -59,-0.23 l -14,-0.15 h -3.58 c -4,0 -9.13,1.2 -10.83,-3.2 -1.23,-3.18 -0.79,-6.69 -0.74,-10 q 0.12,-7.84 0.26,-15.7 c 0.08,-4.71 0.18,-9.43 0.24,-14.15 0,-0.74 0,-1.49 0,-2.23 0,-2 -0.2,-3.25 1.44,-4.65 1.44,-1.22 3.09,-1.21 4.86,-1.32 8.46,-0.52 17,-0.43 25.45,-0.43 h 34.85 c 3.55,0 7.1,0 10.65,0.1 3.77,0.12 7.55,0.25 11.33,0.44 3.29,0.17 7,0 7.73,4 a 0.37,0.37 0 0 0 0.05,0.11 c 0.46,3.14 0.05,6.63 0.02,9.76 z"
       fill="#1e1e1e"
       id="path360" />
    <path
       d="m 778.7334,242.49424 q -0.14,-13.2 -0.26,-26.4 c 0,-0.86 0,-1.74 0,-2.6 -0.08,-1.69 0.43,-5.22 -0.28,-6.62 -1.64,-3.26 -8.48,-3.29 -11.6,-3.53 -9.16,-0.7 -18.42,-0.7 -27.59,-0.53 -5.13,0.09 -10.25,0.33 -15.37,0.37 -4,0 -8.88,-0.94 -12,2.21 -1.79,1.8 -1.94,3.86 -1.94,6.22 0,4.58 0.09,9.17 0.15,13.75 0.12,9.15 0.44,18.32 0.35,27.47 a 0.59,0.59 0 0 0 0,0.27 c 0.67,6.92 9.8,5.69 14.75,5.78 9,0.16 18.06,0.26 27.08,0.36 2.33,0 4.65,0.05 7,0.09 4.6,0.09 10.76,1 15.14,-0.78 5.44,-2.24 4.62,-11.13 4.57,-16.06 z m -2,6.06 c -0.14,2 -0.69,5.47 -2.06,7 -1.72,2 -5.4,1.63 -7.8,1.7 -3.95,0.11 -7.9,0 -11.86,-0.08 q -10.08,-0.07 -20.16,-0.19 l -13.43,-0.14 c -3.32,0 -9,0.7 -9.77,-4 v 0 c 0.15,-13.9 -0.18,-27.85 0.31,-41.75 0.14,-3.78 2.12,-5.65 6.36,-5.78 4.24,-0.13 8.38,0.06 12.55,0 7.71,-0.19 15.36,-0.43 23.05,-0.14 4.23,0.16 8.49,0.13 12.7,0.44 2.09,0.16 6.68,0.23 8.42,1.56 1.35,1 1.12,4.32 1.23,6.24 0.35,6 0.17,12.06 0.25,18.06 0.02,5.63 0.55,11.46 0.17,17.08 z"
       fill="#1e1e1e"
       id="path362" />
    <path
       d="m 531.3334,171.73424 a 9,9 0 0 1 -2.69,-0.92 c -2,-1.41 -1.32,-2.78 0.38,-3.36 2.14,-0.72 3.19,0.88 5,0.71 a 0.46,0.46 0 0 0 0.43,-0.33 c 1.16,-4 -8.19,-3.67 -9.18,0.25 -0.55,2.2 1.14,4 3,4.89 1.21,0.57 3.47,0.54 4.41,1.45 2,2 -1,3.2 -2.26,3.33 a 4,4 0 0 1 -3.8,-1.82 1.16,1.16 0 1 0 -1.83,1.41 6.64,6.64 0 0 0 6.42,2.49 c 1.87,-0.38 4.35,-1.93 4.54,-4.06 0.23,-2.51 -2.49,-3.5 -4.42,-4.04 z"
       fill="#7f3f98"
       id="path364" />
    <path
       d="m 978.9934,193.87424 -93.72,-1.57 c -1.88,0 -3.73,2 -4.77,4.15 -37.89,0 -75.79,-0.81 -113.66,-1.87 -70.41,-2 -140.85,-4.53 -211.29,-3.06 -9.44,0.2 -19.12,-0.07 -28.51,0.88 -7.26,0.73 -11.28,6 -11.61,13.12 -0.9,19.55 -0.2,39.61 1,59.13 0.38,6.2 7.82,-0.17 7.57,-4.2 -1,-16.48 -1,-33 -1,-49.48 0,-2 0,-3.92 0,-5.88 a 11.29,11.29 0 0 1 0,-3 v 0 c 1.35,-0.63 3.76,-0.29 5.16,-0.34 l 6.94,-0.23 q 12.39,-0.37 24.79,-0.58 c 33.72,-0.56 67.45,-0.24 101.17,0.46 66.79,1.39 133.56,4.25 200.37,4.61 38,0.2 76,-0.44 114,-2.57 3.77,-0.17 8.27,-9.49 3.56,-9.57 z"
       opacity="0.2"
       id="path366" />
    <path
       d="m 551.9334,171.06424 c -0.48,-3.14 -2.24,-5.08 -5.55,-5.18 a 7.6,7.6 0 0 0 -5.44,2 c -0.1,-0.59 -0.2,-1.19 -0.33,-1.78 a 1.0090714,1.0090714 0 0 0 -2,0.27 c 0.22,6.08 0.78,12 0.49,18.13 -0.07,1.54 2.33,1.54 2.4,0 0.1,-2.07 0.16,-4.18 0.16,-6.29 a 7.28,7.28 0 0 0 7.12,0.83 c 3.21,-1.19 3.6,-5.01 3.15,-7.98 z m -2.64,5.15 c -1.42,2 -5.59,1.62 -6.93,-0.17 a 1.08,1.08 0 0 0 -0.7,-0.43 c -0.06,-1.81 -0.18,-3.61 -0.39,-5.4 a 7.85,7.85 0 0 1 3.66,-2.18 c 2,-0.42 4.16,0.16 4.76,2.32 0.43,1.61 0.63,4.38 -0.4,5.86 z"
       fill="#7f3f98"
       id="path368" />
    <path
       d="m 566.6134,171.37424 c 0,-1.56 0,-3.33 -1,-4.63 -2,-2.52 -6.38,-1.3 -8.8,-0.23 -1.18,0.52 -0.33,2.36 0.86,2 a 12.78,12.78 0 0 1 3.76,-0.72 c 0.76,0 2,0.21 2.49,1 a 5.16,5.16 0 0 1 0.2,2.11 v 0.9 a 8,8 0 0 0 -4.35,-1.06 4.42,4.42 0 0 0 -4.27,4.39 c 0,4.5 5.5,5 8.78,3.12 0,0.16 0,0.33 0,0.5 a 1.23,1.23 0 0 0 2.45,0 c 0.02,-2.45 -0.05,-4.92 -0.12,-7.38 z m -5.41,5.51 c -1.51,0.38 -3.78,-0.08 -3.35,-2.19 0.43,-2.11 2.91,-1.78 4.4,-1.34 a 17.32,17.32 0 0 0 2,0.67 c 0,0.49 0,1 0,1.46 a 11.68,11.68 0 0 1 -3.05,1.4 z"
       fill="#7f3f98"
       id="path370" />
    <path
       d="m 581.2134,168.36424 c 1.24,-2.6 -3.17,-3.3 -4.84,-3.19 -3.12,0.21 -5,2.4 -5.93,5.24 -0.93,2.84 -0.31,6.06 2.35,7.91 3,2.07 6.84,1.53 9.75,-0.34 a 1.2100103,1.2100103 0 0 0 -1.22,-2.09 c -2,1 -4.14,1.81 -6.3,0.86 a 4.23,4.23 0 0 1 -2.36,-5.33 c 0.52,-1.9 1.6,-3.59 3.71,-3.84 1.72,-0.21 2.78,0.62 4.32,1 a 0.48,0.48 0 0 0 0.52,-0.21 z"
       fill="#7f3f98"
       id="path372" />
    <path
       d="m 595.7634,176.38424 c -2.37,2 -6.16,2 -8,-0.72 a 5,5 0 0 1 -0.77,-1.83 36.14,36.14 0 0 0 8.76,-0.09 c 1.73,-0.17 3,-0.74 2.39,-2.69 -1.27,-4.32 -5.89,-6.83 -9.93,-4.43 a 7.27,7.27 0 0 0 -2,10.69 c 2.79,3.68 8,3.6 11.3,0.77 1.13,-1 -0.58,-2.69 -1.75,-1.7 z m -5.51,-8.09 a 3.82,3.82 0 0 1 3.78,1 6.29,6.29 0 0 1 1.15,1.64 l -0.32,0.11 c -1.16,-0.33 -3.22,0.19 -4.44,0.24 -1.22,0.05 -2.26,0 -3.38,0.12 a 4.4,4.4 0 0 1 3.21,-3.11 z"
       fill="#7f3f98"
       id="path374" />
    <path
       d="m 600.4434,173.55424 c 0.66,0.67 1.54,0.51 2.41,0.52 a 12.69,12.69 0 0 0 2.89,-0.05 1.31,1.31 0 0 0 0,-2.51 7.88,7.88 0 0 0 -3.06,0 c -0.91,0.12 -1.86,0.14 -2.38,1 a 0.88,0.88 0 0 0 0.14,1 z"
       fill="#7f3f98"
       id="path376" />
    <path
       d="m 619.4134,166.38424 c -1.91,-1.8 -7.23,-1.17 -8.46,1.17 a 0.53,0.53 0 0 0 0.45,0.78 8.53,8.53 0 0 0 2.8,-0.54 c 2.25,-0.5 4.34,0.12 4.68,2.69 0.07,0.53 0.11,1.08 0.14,1.63 a 12.46,12.46 0 0 0 -5.38,-1.21 3.61,3.61 0 0 0 -4.06,4 c 0.13,2.1 1,4.63 3.3,5.17 2.3,0.54 4.33,-0.82 6.14,-2.16 l -0.06,1.32 c -0.08,1.49 2.41,1.49 2.31,0 -0.24,-3.6 1.14,-10.02 -1.86,-12.85 z m -4,11.35 c -2.33,1.09 -3.51,-0.68 -3.65,-2.79 -0.22,-3.3 4.9,-1.34 7.38,-0.69 v 1.11 a 31.71,31.71 0 0 1 -3.76,2.37 z"
       fill="#7f3f98"
       id="path378" />
    <path
       d="m 632.6534,165.81424 c -1.26,-0.48 -3.12,0.87 -4,1.65 a 7.33,7.33 0 0 0 -0.7,0.67 2.72,2.72 0 0 0 -1.21,-1.93 0.11,0.11 0 0 0 -0.11,0 c -1.23,1.21 -0.63,3.18 -0.63,4.78 0,2.53 -0.26,5 -0.38,7.56 -0.06,1.27 2,1.58 2.25,0.3 a 30.87,30.87 0 0 0 0.33,-7.86 c 0,-0.15 0,-0.32 0,-0.48 a 9.85,9.85 0 0 1 1.93,-1.64 8.38,8.38 0 0 1 1.5,-0.67 c 0.59,-0.2 1.12,-0.23 1.53,-0.74 a 1,1 0 0 0 -0.51,-1.64 z"
       fill="#7f3f98"
       id="path380" />
    <path
       d="m 646.6034,167.07424 a 0.86,0.86 0 0 0 -1.33,0 c -2.62,-2.49 -7,-2 -9.39,0.7 -2.39,2.7 -2.79,7.37 -0.19,10.08 6.31,6.62 17.14,-4.21 10.91,-10.78 z m -2.12,9 c -1.86,1.78 -5.48,2.56 -7.42,0.47 -1.77,-1.91 -1.5,-5.29 0.11,-7.18 1.94,-2.25 5,-2 7.37,-0.62 a 0.76,0.76 0 0 0 0.77,0 c 1.05,2.52 1.39,5.17 -0.83,7.31 z"
       fill="#7f3f98"
       id="path382" />
    <path
       d="m 664.9334,178.92424 a 96.62,96.62 0 0 1 -0.91,-12.83 1.19,1.19 0 0 0 -2.38,0 32.27,32.27 0 0 1 -0.55,5.64 c -0.28,1.4 -0.63,4.14 -1.9,5 a 3.1,3.1 0 0 1 -4.56,-1.09 9.71,9.71 0 0 1 -0.56,-3 43,43 0 0 1 -0.06,-6 1.11,1.11 0 0 0 -0.78,-1 h -0.15 a 0.83,0.83 0 0 0 -0.94,0.38 c -0.65,0.91 -0.53,2.65 -0.56,3.71 a 24.28,24.28 0 0 0 0.4,5.31 c 0.51,2.68 1.85,4.53 4.71,4.76 a 5.4,5.4 0 0 0 5.55,-3.32 c 0.1,0.94 0.2,1.88 0.31,2.81 a 1.21,1.21 0 1 0 2.38,-0.37 z"
       fill="#7f3f98"
       id="path384" />
    <path
       d="m 679.4434,170.02424 c -0.08,-1.72 -0.32,-3.41 -2,-4.21 -2.14,-1 -5.42,-0.12 -7.19,1.7 a 14.32,14.32 0 0 0 -0.22,-1.44 0.9,0.9 0 0 0 -1.73,0 45.31,45.31 0 0 0 -0.47,7.55 c 0,1.84 -0.7,4.35 0.74,5.74 a 1.14,1.14 0 0 0 1.88,-0.5 c 0.71,-1.76 0.14,-4.28 0.07,-6.16 0,-1 0,-1.91 -0.09,-2.87 2.17,-1.18 5.63,-3.79 6.65,-0.25 a 16,16 0 0 1 0.1,4 c 0,1.65 0,3.29 -0.12,4.94 -0.12,1.65 2.66,1.69 2.61,0 -0.14,-2.81 -0.08,-5.66 -0.23,-8.5 z"
       fill="#7f3f98"
       id="path386" />
    <path
       d="m 695.6334,169.58424 c 0,-2.9 0.42,-6.08 -0.57,-8.82 a 0.61,0.61 0 0 0 -1.17,0 v 0 a 17,17 0 0 0 -0.76,6.4 5.77,5.77 0 0 0 -4.94,-1.74 c -2.72,0.46 -4.77,3.7 -5.14,6.27 a 8,8 0 0 0 3.58,7.46 c 2,1.22 4.53,0.56 6.52,-0.71 0,0.41 0,0.83 0,1.24 a 1.29,1.29 0 0 0 2.58,0 c -0.03,-3.37 -0.09,-6.73 -0.1,-10.1 z m -5.4,7.44 c -3.06,1.07 -5.38,-2.09 -5.11,-4.91 0.18,-1.93 1.6,-4.24 3.55,-4.53 1.95,-0.29 3.07,1 4.48,2 0,2 0,3.92 0,5.88 -1.03,0.45 -1.86,1.18 -2.92,1.56 z"
       fill="#7f3f98"
       id="path388" />
    <path
       d="m 534.8734,303.96424 c -2.78,-3 -10.17,-3.17 -10,2.21 0.07,2.45 2.17,3.17 4.13,3.93 1.27,0.49 5.2,1.3 4.14,3.25 -0.43,0.81 -1.68,1 -2.49,1.17 -1.94,0.44 -3.16,0.19 -4.4,-1.49 a 1.0807868,1.0807868 0 0 0 -2,0.82 c 1.08,5.08 11.06,4 11.66,-0.88 0.25,-2 -2.31,-3.14 -3.85,-3.72 -1,-0.38 -2.05,-0.69 -3.05,-1.07 a 8.78,8.78 0 0 1 -1.41,-0.6 c -1.21,-1.58 -1,-2.67 0.56,-3.27 1.81,-0.66 3.87,0.57 5.44,1.28 a 1.0301092,1.0301092 0 0 0 1.26,-1.63 z"
       fill="#7f3f98"
       id="path390" />
    <path
       d="m 551.5534,308.37424 c -0.56,-2.78 -2.4,-5.46 -5.37,-5.91 a 7.85,7.85 0 0 0 -5.4,1.52 c 0,-0.3 -0.06,-0.61 -0.11,-0.91 -0.15,-0.94 -1.55,-0.65 -1.6,0.22 -0.29,5.73 -0.49,11.58 -0.33,17.32 0,1.35 2.17,1.35 2.1,0 -0.09,-2 0,-4 0.06,-6.06 a 7.32,7.32 0 0 0 7.23,1.29 c 3.01,-1.23 4.03,-4.45 3.42,-7.47 z m -4,5.15 c -2.25,1.25 -4.32,0 -6,-1.47 a 1.17,1.17 0 0 0 -0.46,-0.25 c 0.06,-1.83 0.08,-3.65 0,-5.46 0.74,-0.41 1.36,-1.06 2.18,-1.44 2.64,-1.23 5,0.21 5.87,2.78 0.56,2.02 0.43,4.68 -1.64,5.84 z"
       fill="#7f3f98"
       id="path392" />
    <path
       d="m 566.6634,308.26424 c -0.2,-1.69 -0.32,-3.76 -1.65,-5 -2,-1.86 -7.63,-1.36 -8.69,1.25 a 0.42,0.42 0 0 0 0.29,0.5 c 2.56,0.78 6.27,-2.62 7.49,1.47 a 11.41,11.41 0 0 1 0.42,2.46 c -3,-2 -8.91,-1.31 -9.17,2.69 -0.15,2.18 1.78,4 3.76,4.47 a 8,8 0 0 0 5.41,-0.89 v 0.15 a 1.0097524,1.0097524 0 0 0 2,0.28 21,21 0 0 0 0.14,-7.38 z m -9.19,3.76 c -0.13,-1.17 0.43,-1.45 1.49,-1.78 a 6.75,6.75 0 0 1 1.89,-0.32 7.16,7.16 0 0 1 3.71,1 c 0,0.47 0,0.94 0,1.4 -2.43,1.07 -6.63,3.49 -7.09,-0.3 z"
       fill="#7f3f98"
       id="path394" />
    <path
       d="m 582.1034,304.39424 c -1.09,-2.8 -4.36,-2.7 -6.86,-2 a 6.83,6.83 0 0 0 -5,6.15 c -0.33,2.65 0.38,5 2.68,6.48 3.1,2 5.91,1.49 9,-0.1 1.44,-0.73 0.17,-2.91 -1.26,-2.17 -2,1 -3.65,1.51 -5.78,0.69 -1.88,-0.73 -3,-1.88 -3,-4 0,-5 5,-6.49 8.71,-4 a 1,1 0 0 0 1.45,-1.11 z"
       fill="#7f3f98"
       id="path396" />
    <path
       d="m 596.4834,313.38424 c -1.87,0.62 -3.88,1.27 -5.85,0.85 a 4.75,4.75 0 0 1 -3.7,-3.73 c 1.57,0.09 3.14,0 4.71,0 1.75,0 3.91,0.26 5.61,-0.23 a 1.25,1.25 0 0 0 0.89,-1.18 c 0.18,-2.81 -2.56,-6.11 -5.19,-6.77 a 6.31,6.31 0 0 0 -7.27,3.64 9.12,9.12 0 0 0 -0.64,2.49 1.1,1.1 0 0 0 0,1.79 7.17,7.17 0 0 0 2.13,4.66 c 2.76,2.59 6.67,1.92 9.94,0.91 1.56,-0.5 0.89,-2.93 -0.63,-2.43 z m -4.78,-9.07 a 5.91,5.91 0 0 1 4,3.72 c -1.58,0.14 -3.44,-0.09 -4.91,-0.07 -1.28,0 -2.56,0 -3.84,0.14 v 0 c 0.4,-2.36 2.16,-4.4 4.75,-3.79 z"
       fill="#7f3f98"
       id="path398" />
    <path
       d="m 600.3834,310.61424 c 0.82,0.61 2,0.45 2.93,0.47 a 16.17,16.17 0 0 0 3.19,-0.12 c 1.38,-0.25 1.44,-2.64 0,-2.84 a 15.37,15.37 0 0 0 -3.39,0.05 4.68,4.68 0 0 0 -2.94,0.81 1,1 0 0 0 0.21,1.63 z"
       fill="#7f3f98"
       id="path400" />
    <path
       d="m 622.1134,310.15424 a 1.33,1.33 0 0 0 1.27,-1.67 8.92,8.92 0 0 0 -6.37,-6.13 c -3,-0.66 -5.68,1.8 -6.69,4.46 -2.83,7.47 5.79,12.28 11.59,7.77 1.16,-0.91 -0.32,-2.39 -1.45,-1.89 -2.11,0.94 -3.5,1.94 -5.9,1 a 4.13,4.13 0 0 1 -2.73,-3 53.48,53.48 0 0 0 10.28,-0.54 z m -9.9,-2.68 c 1.82,-4.44 6,-2.91 7.94,0.21 -2.74,0.19 -5.52,0.27 -8.23,0.66 a 7.39,7.39 0 0 1 0.29,-0.87 z"
       fill="#7f3f98"
       id="path402" />
    <path
       d="m 636.2734,302.96424 c -1,2.12 -2,4.25 -3,6.38 -0.4,0.87 -0.79,1.74 -1.19,2.59 -0.07,0.14 -0.42,0.95 -0.71,1.63 -0.89,-1.62 -1.52,-3.76 -2.15,-5.22 -0.84,-1.93 -1.48,-4.15 -2.94,-5.68 a 0.63,0.63 0 0 0 -1.06,0.43 c -0.07,2.53 1.34,5.24 2.26,7.55 0.78,2 1.5,4.54 2.9,6.09 a 1.33,1.33 0 0 0 1.3,0.35 c 1.59,-0.4 2.29,-2.89 2.89,-4.17 q 2,-4.29 4,-8.63 c 0.61,-1.51 -1.57,-2.84 -2.3,-1.32 z"
       fill="#7f3f98"
       id="path404" />
    <path
       d="m 650.5034,303.64424 a 4.57,4.57 0 0 0 -5.21,-0.94 c -3.69,1.73 -6.57,7.41 -4.12,11 2.88,4.27 7.57,3.57 11.39,1.18 1.31,-0.82 0.08,-2.92 -1.21,-2.08 -2.49,1.63 -5.36,2.84 -7.79,0.35 a 3.5,3.5 0 0 1 -1.07,-2.83 c 2.58,0.33 5.3,0.19 7.87,0.31 1.44,0.07 3.46,0.39 3.66,-1.55 0.2,-1.94 -2.17,-4.26 -3.52,-5.44 z m -1.5,4.49 a 35,35 0 0 0 -5.79,0 c 0.79,-1.51 2.66,-4.12 4.76,-3.3 a 8.15,8.15 0 0 1 2.36,2.18 c 1.6,1.83 0.24,1.2 -1.33,1.12 z"
       fill="#7f3f98"
       id="path406" />
    <path
       d="m 668.9334,306.63424 a 3.91,3.91 0 0 0 -2.5,-3.55 c -1.64,-0.57 -5.2,0.31 -6.89,2 -0.11,-0.64 -0.23,-1.28 -0.39,-1.9 -0.21,-0.81 -1.62,-0.92 -1.74,0 -0.57,4.08 0.24,8.45 0.29,12.57 0,1.69 2.76,1.63 2.59,0 -0.27,-2.62 -0.24,-5.4 -0.45,-8.1 1.77,-0.68 3.28,-3 5.39,-2.42 2.55,0.7 1.45,7.77 1.21,9.69 -0.2,1.62 2.36,1.62 2.55,0 a 32.86,32.86 0 0 0 -0.06,-8.29 z"
       fill="#7f3f98"
       id="path408" />
    <path
       d="m 673.4634,297.63424 c -0.88,2 -0.45,4.92 -0.52,7.06 -0.11,3.53 -0.13,7 0,10.54 0.06,1.58 2.59,1.5 2.4,0 -0.52,-3.93 -0.24,-7.9 -0.22,-11.86 0,-1.14 0.52,-5.3 -0.92,-5.94 a 0.57,0.57 0 0 0 -0.75,0.2 z"
       fill="#7f3f98"
       id="path410" />
    <path
       d="m 689.2334,302.75424 a 52.57,52.57 0 0 0 -4.62,9.1 77.83,77.83 0 0 0 -4.85,-9.16 c -0.48,-0.75 -1.85,-0.51 -1.79,0.49 0.14,2.07 1.4,3.81 2.25,5.65 1,2.24 2,4.5 3,6.75 -0.87,2.27 -2,4.31 -4.67,4.61 -1.27,0.14 -1.78,2.07 -0.32,2.41 3.75,0.88 5.3,-1.55 6.58,-4.65 0.2,-0.47 0.4,-0.94 0.61,-1.4 a 1.53,1.53 0 0 0 0.63,-1.39 c 1.78,-3.83 3.83,-7.57 5.25,-11.53 0.48,-1.28 -1.37,-1.88 -2.07,-0.88 z"
       fill="#7f3f98"
       id="path412" />
    <path
       d="m 941.5934,388.43424 c -0.29,-3.17 -1.23,-6 -1.22,-9.3 0.01,-3.3 0.25,-6.3 0.41,-9.45 a 78.36,78.36 0 0 0 -1.34,-20.79 c -0.6,-2.81 -3.78,-1.86 -5.34,-0.6 a 8.39,8.39 0 0 0 -3,7.76 c 1.45,6.78 1.29,13.44 0.92,20.32 -0.18,3.15 -0.37,6.3 -0.3,9.45 0,1.25 0.06,2.54 0.2,3.8 -1.29,0.4 -2.57,0.83 -3.88,1.16 a 39.06,39.06 0 0 1 -12.57,0.85 c -8.63,-0.56 -17.21,-1.81 -25.81,-2.73 a 173.78,173.78 0 0 0 -26.09,-1.23 c -8.73,0.37 -17.36,1.69 -26.1,1.43 -4.67,-0.14 -9.32,10.82 -4.13,11 14.24,0.42 28.24,-2.13 42.54,-1.09 14,1 28.22,4.41 42.23,3.76 8.14,-0.4 24.5,-3.06 23.48,-14.34 z"
       opacity="0.15"
       id="path414" />
    <path
       d="m 785.4334,350.84424 c -0.62,-2.79 -3.77,-1.86 -5.34,-0.59 a 8.36,8.36 0 0 0 -3,7.75 73.8,73.8 0 0 1 1.39,23.57 c -0.2,2 -0.47,3.93 -0.75,5.89 -0.14,1 -0.29,2 -0.44,2.93 0,0.16 -0.08,0.29 -0.1,0.41 -2.94,1 -7.68,0.27 -10.65,0.31 -15.27,0.18 -31.35,0.29 -46.44,-2.22 -4.56,-0.76 -9.49,10.08 -4.13,11 10.2,1.7 20.7,1.73 31,2 5.14,0.15 10.28,0.24 15.42,0.18 4.45,-0.06 9.56,0.35 13.89,-0.86 9,-2.52 9.59,-13.11 10.47,-20.81 a 88.57,88.57 0 0 0 -1.32,-29.56 z"
       opacity="0.15"
       id="path416" />
    <path
       d="m 670.9334,348.46424 c -0.54,-2.84 -3.81,-1.83 -5.34,-0.6 a 8.42,8.42 0 0 0 -3,7.75 c 2.07,10.83 -0.14,21.83 0.53,32.74 0,0.1 0,0.8 0.06,1.51 -2.57,-0.28 -5.72,0.62 -8.38,0.57 -5.25,-0.09 -10.49,-0.58 -15.74,-0.87 q -16.09,-0.87 -32.21,-1 -8.3,-0.08 -16.6,0 c -4.24,0.06 -9.89,-0.88 -13.75,1.07 -3,1.54 -6.14,7.49 -2.92,10.15 l 0.21,0.16 c 1,0.83 2.47,0.23 3.63,-0.61 1.81,-0.26 5.37,0.26 6.75,0.24 3.25,0 6.51,-0.08 9.76,-0.09 q 9.77,0 19.54,0.21 c 13,0.31 26,1.81 39,1.73 4.71,0 10.46,-0.09 14.38,-3.08 3.92,-2.99 5.37,-7.5 5.16,-12.28 -0.6,-12.5 1.27,-25.22 -1.08,-37.6 z"
       opacity="0.15"
       id="path418" />
    <path
       d="m 826.2734,347.04424 c 0.71,-1.9 1.17,-4.5 5.94,-5.51 1.18,-0.25 95.42,-1.33 99.11,0.85 3.69,2.18 4,8.14 3.85,10.47 -0.09,1.51 1.18,30 0.83,33 -0.15,1.36 -1.76,8.31 -4.1,8.55 -2.55,0.27 -98.76,0.49 -100.84,-0.44 -2.08,-0.93 -4.73,-5.56 -4.95,-8 -0.22,-2.44 -0.87,-36.15 0.16,-38.92 z"
       fill="#f7941f"
       id="path420" />
    <path
       d="m 712.9334,390.85424 c 0.77,2.83 3.32,3.24 5.58,3.76 0.55,0.13 55.2,0.63 55.2,0.63 3.82,-0.06 5,-6 5.45,-6.49 1.17,-1.11 0.06,-40.68 -0.1,-42.24 -0.07,-0.7 -5.68,-4.45 -6.65,-5 -1.76,-1.08 -46.5,0.16 -50.22,-0.12 -6.82,-0.51 -9.49,4.07 -9.6,5.34 -0.11,1.27 0.03,43.11 0.34,44.12 z"
       fill="#f7941f"
       id="path422" />
    <path
       d="m 665.2734,346.63424 c -1,-3 -5.18,-5.11 -7.84,-5.63 -0.66,-0.13 -84.21,-0.36 -85.83,0 -1.24,0.28 -3.14,2.12 -3.72,2.58 -1.38,1.11 -1.44,42.77 -1.44,42.77 0,3.88 5.28,7.22 6.42,7.81 2.09,1.08 88.63,0.52 89.91,0.18 3,-0.81 3.92,-4.11 4,-5.39 0.08,-1.28 -1.19,-41.32 -1.5,-42.32 z"
       fill="#f7941f"
       id="path424" />
    <path
       d="m 662.5934,342.78424 c -12.31,-3.22 -24.93,-3.11 -37.55,-2.52 -13,0.61 -25.85,1.09 -38.81,0.62 -4,-0.15 -10.42,-1.95 -13.83,0.93 -3.58,3 -2.58,8.1 -2.64,12.18 -0.16,12.35 -2.95,25.74 0.79,37.78 1.35,4.36 7.25,-2.13 6.24,-5.37 -2.17,-7 -1.57,-14.7 -1.19,-21.93 0.18,-3.44 0.42,-6.88 0.55,-10.33 0.07,-1.87 0.12,-3.75 0.11,-5.63 a 1.49,1.49 0 0 1 0,-0.19 c 2.39,0.12 5.34,0.73 6.86,0.79 3.82,0.14 7.65,0.22 11.47,0.24 7.27,0 14.52,-0.22 21.78,-0.58 14.46,-0.72 29,-1.45 43.12,2.25 3.29,0.85 7.12,-7.19 3.1,-8.24 z"
       fill="#ffffff"
       opacity="0.25"
       id="path426" />
    <path
       d="m 778.2134,345.77424 c -2.15,-6.9 -11,-4.69 -16.5,-4.39 l -25,1.35 c -3,0.17 -6,0.35 -9,0.6 a 0.85,0.85 0 0 0 0,-0.17 c -1.47,-5.51 -10.34,-1.05 -12.89,1.39 -5.45,5.22 -1.6,13.81 -2.48,20.36 l -0.24,1.25 c -0.31,1.64 0.26,3.09 1.82,3.24 -1.05,7.73 -1.79,15.47 1.05,23 1.64,4.33 7.45,-2.2 6.25,-5.37 -3.36,-8.87 -1,-17.71 0,-26.78 0.16,-1.52 0.19,-3.11 0.38,-4.62 a 7.14,7.14 0 0 1 1.34,-3.61 c 2.72,-0.27 6.41,-0.79 7.07,-0.83 2.81,-0.17 5.62,-0.31 8.43,-0.46 l 17.33,-0.94 c 0.88,0 2.51,-0.29 4.41,-0.5 a 1.56,1.56 0 0 0 0.73,0.54 44,44 0 0 0 12.67,2.77 c 2.84,0.16 5.42,-4.26 4.63,-6.83 z"
       fill="#ffffff"
       opacity="0.25"
       id="path428" />
    <path
       d="m 932.8134,342.95424 c -9.93,-3 -20.14,-2.08 -30.33,-1.28 l -19.41,1.54 q -16.72,0.22 -33.46,-0.41 c -4.95,-0.19 -11.78,-1.63 -16.48,0.3 -4.7,1.93 -4.88,7.15 -5.26,11.59 -1.09,12.77 -2.61,25.76 2.53,37.91 1.81,4.29 7.56,-2.25 6.24,-5.37 a 47.78,47.78 0 0 1 -3.46,-19.29 124,124 0 0 1 1.06,-17.55 c 2.46,-0.25 6.7,0.41 8.4,0.48 4.52,0.19 9,0.36 13.57,0.46 3.3,0.08 6.6,0.12 9.9,0.15 a 1.32,1.32 0 0 0 1.5,0.93 l 12.33,-1 h 2.44 c 8.4,-0.13 16.82,-0.68 25.22,-0.44 7.6,0.22 15.45,2.44 22.9,0.18 2.64,-0.84 6.34,-6.94 2.31,-8.2 z"
       fill="#ffffff"
       opacity="0.25"
       id="path430" />
    <path
       d="m 936.4634,359.04424 c -0.11,-3.45 0.11,-7.11 -0.28,-10.54 -0.75,-6.47 -4.74,-7.29 -10.31,-8 -11.9,-1.55 -24.13,-0.58 -36.12,-0.59 -14.39,0 -28.81,-0.33 -43.19,0.13 -5.22,0.17 -11.41,-0.28 -16.49,1 -5.38,1.34 -4.52,7.24 -5,11.53 a 0.66,0.66 0 0 0 0,0.14 c -1.36,9 -0.2,19 0,28.1 0.07,3.87 -0.14,8.3 2.32,11.57 2.86,3.78 9.59,3.08 13.8,3.36 18.77,1.22 37.65,-0.78 56.44,-0.47 10.11,0.17 20.3,1.24 30.41,0.69 5.35,-0.3 8.82,-2.2 9.17,-7.79 0.54,-9.64 -0.45,-19.52 -0.75,-29.13 z m -8.48,34.62 c -8.54,0.53 -17.26,-0.25 -25.8,-0.58 -17.66,-0.67 -35.4,0.66 -53.07,0.6 -3.9,0 -7.76,-0.15 -11.65,-0.39 -2,-0.12 -4.77,0.08 -6.59,-0.71 -2.52,-1.11 -3.53,-4.36 -3.83,-6.86 -0.17,-1.37 -0.14,-2.78 -0.18,-4.16 -0.2,-5.56 -0.33,-11.13 -0.42,-16.7 -0.07,-3.87 -0.59,-8.16 0,-12 a 0.54,0.54 0 0 0 0.05,-0.11 c 0.32,-1.86 0.24,-3.77 0.67,-5.62 0.85,-3.65 3.16,-4.31 6.41,-4.5 4.69,-0.29 9.41,-0.53 14.11,-0.64 11.62,-0.27 23.25,0 34.87,0 9.66,0 19.31,0 29,-0.08 3.3,0 6.59,-0.06 9.88,0.23 2.75,0.24 6.66,0.14 9.22,1.32 4.26,2 3.46,7.58 3.57,11.62 0.25,9.46 0.61,18.93 0.73,28.4 0.03,5.02 -0.36,9.73 -6.97,10.18 z"
       fill="#1e1e1e"
       id="path432" />
    <path
       d="m 780.4634,379.26424 c -0.07,-8.36 -0.2,-16.72 -0.27,-25.08 0,-3.05 0.66,-6.36 -0.93,-9.11 -2.93,-5.09 -9.08,-5 -14.19,-5.09 -8,-0.21 -15.89,-0.63 -23.9,-0.23 -5.32,0.26 -10.64,0.52 -16,0.63 -3.7,0.08 -7.91,-0.69 -11,1.88 -4.93,4.14 -2.75,14.17 -2.68,19.61 0.12,9.23 0.45,18.49 0.35,27.72 a 0.77,0.77 0 0 0 0,0.27 c 0.67,6.91 9.8,5.69 14.75,5.78 9,0.16 18.06,0.26 27.08,0.36 7.05,0.08 15.23,1.46 22,-0.54 5.62,-1.62 4.82,-11.5 4.79,-16.2 z m -2.75,9.35 c -0.37,2.26 -0.59,4.07 -2.87,4.92 -2.06,0.78 -5,0.51 -7.19,0.54 -3.66,0.06 -7.33,-0.07 -11,-0.1 -6.87,0 -13.74,-0.13 -20.61,-0.2 l -12.93,-0.13 c -3.31,0 -9,0.7 -9.77,-4 v 0 c 0.15,-13.51 -0.38,-27.14 0.31,-40.63 0.42,-8.31 11,-6.32 17.1,-6.54 6.65,-0.24 13.39,-1 20,-0.74 4.33,0.18 8.65,0.35 13,0.47 a 52.22,52.22 0 0 1 7.19,0.32 c 3.32,0.56 6.38,2.66 7.05,6.14 a 17.62,17.62 0 0 1 -0.05,3.48 c -0.08,6.24 0.18,12.5 0.27,18.74 0.09,5.9 0.48,11.89 -0.5,17.73 z"
       fill="#1e1e1e"
       id="path434" />
    <path
       d="m 667.4134,380.94424 c -0.43,-11 0.16,-22.56 -1.48,-33.41 a 0.74,0.74 0 0 0 0,-0.33 c -1.24,-5.34 -5.06,-6.81 -10,-7.1 -5.69,-0.33 -11.4,-0.59 -17.1,-0.61 q -15.69,0 -31.39,0 c -9.54,0 -19.07,0 -28.6,0.24 -4.35,0.14 -11.56,-0.6 -12.59,4.85 -0.57,3 -0.2,6.58 -0.26,9.6 -0.2,10.44 -1.29,21.26 -0.63,31.67 0.73,11.4 12.88,9.65 21.1,9.75 21.56,0.25 43.19,0.94 64.75,0.45 4.17,-0.1 13.25,1.51 15.51,-3.21 1.59,-3.43 0.83,-8.23 0.69,-11.9 z m -2.15,9.4 c -1.34,3.88 -4.73,3.17 -8.16,3.29 -19.42,0.64 -38.9,0 -58.33,-0.2 l -15.07,-0.16 c -4.23,0 -10.48,1 -13.64,-2 -3.16,-3 -2.46,-7.05 -2.41,-10.91 0.08,-5.36 0.18,-10.71 0.27,-16.07 q 0.12,-6.95 0.23,-13.9 c 0,-0.74 0,-1.49 0,-2.23 0,-1.18 -0.35,-3.05 0.27,-4.08 1,-1.73 3.66,-1.9 5.41,-2.08 8.32,-0.89 16.91,-0.49 25.28,-0.49 h 35 c 3.37,0 6.73,0 10.1,0.06 6.3,0.17 18,-1.69 20.24,6 a 0.26,0.26 0 0 0 0.05,0.09 c 1.31,8.55 0.56,17.89 0.78,26.52 0.1,3.93 0.32,7.89 0.28,11.83 a 14.09,14.09 0 0 1 -0.3,4.33 z"
       fill="#1e1e1e"
       id="path436" />
    <path
       d="m 985.8634,254.96424 c -0.17,-8.3 -0.3,-16.61 -0.46,-24.91 -0.14,-8 0.21,-16.19 -0.64,-24.15 -0.59,-5.56 -2.2,-11.6 -8,-13.63 -7.13,-2.5 -16.18,-0.55 -23.56,-0.33 -4.3,0.12 -8.55,-0.37 -12.84,-0.38 h -80.84 q -70.23,0 -140.47,0.22 -66.6,0.12 -133.2,0.28 l -43,0.11 c -7.27,0 -15.38,-0.74 -22.59,0.38 -9.21,1.43 -7,9.21 -6.92,16.42 0,3 0,6 0,9 q 0.13,16 0.28,31.94 c 0,4.16 -1.14,8.84 -0.15,12.84 1.54,6.25 7.71,8.11 13.44,8.37 5.48,0.25 11,-0.06 16.49,-0.07 l 78.77,-0.21 q 69.48,-0.2 139,-0.36 l 133.4,-0.35 c 20.64,-0.06 41.29,-0.21 61.94,-0.21 7.6,0 15.46,0.54 23,-0.78 7.54,-1.32 6,-7.66 6.43,-13.89 a 0.64,0.64 0 0 0 -0.08,-0.29 z m -1.88,7.17 c -0.45,4.56 -3.83,5.31 -7.67,5.67 -5.36,0.5 -10.84,0.32 -16.22,0.28 -1.46,0 -2.91,0 -4.37,0 h -7.37 -34.23 l -120.31,0.24 -139.88,0.32 -98.23,0.2 c -5.28,0 -10.56,0 -15.85,0 -7.9,0 -24.71,2.91 -24.42,-9.42 0.09,-3.84 0.39,-7.64 0.37,-11.48 q -0.11,-15.73 -0.22,-31.53 c 0,-3.3 0.08,-6.64 -0.09,-9.94 -0.13,-2.44 -0.78,-5.19 -0.17,-7.59 1,-4.08 4.74,-4.15 8.35,-4.34 1.2,-0.06 2.42,-0.05 3.63,-0.06 2.13,0 4.26,0 6.4,0 l 32.9,-0.08 119.64,-0.25 141,-0.3 q 50.1,-0.12 100.21,-0.37 c 5.28,0 10.62,-0.27 15.9,-0.06 8.23,0.33 16.31,-0.22 24.54,-0.37 4.45,-0.08 9.95,-0.06 12.64,4.13 2.13,3.32 2.57,7.63 2.8,11.48 0.46,7.77 0.39,15.6 0.57,23.39 0.18,7.79 0.36,15.41 0.52,23.11 a 0.45,0.45 0 0 0 0,0.11 c -0.18,2.26 -0.21,4.57 -0.44,6.86 z"
       fill="#1e1e1e"
       id="path438" />
  </g>
  <metadata
     id="metadata1149">
    <rdf:RDF>
      <cc:Work
         rdf:about="">
        <dc:title>justify-content</dc:title>
      </cc:Work>
    </rdf:RDF>
  </metadata>
</svg>
