<svg height="320" width="320" shapeRendering="crispEdges" viewBox="0 0 29 29" style="width: 320px; height: 320px;" xmlns="http://www.w3.org/2000/svg"><path fill="#fff" d="M0,0 h29v29H0z"></path><path fill="#000" d="M0 0h7v1H0zM11 0h4v1H11zM17 0h2v1H17zM22,0 h7v1H22zM0 1h1v1H0zM6 1h1v1H6zM9 1h2v1H9zM14 1h1v1H14zM17 1h2v1H17zM20 1h1v1H20zM22 1h1v1H22zM28,1 h1v1H28zM0 2h1v1H0zM2 2h3v1H2zM6 2h1v1H6zM12 2h1v1H12zM14 2h1v1H14zM16 2h1v1H16zM19 2h1v1H19zM22 2h1v1H22zM24 2h3v1H24zM28,2 h1v1H28zM0 3h1v1H0zM2 3h3v1H2zM6 3h1v1H6zM8 3h1v1H8zM12 3h2v1H12zM17 3h1v1H17zM22 3h1v1H22zM24 3h3v1H24zM28,3 h1v1H28zM0 4h1v1H0zM2 4h3v1H2zM6 4h1v1H6zM8 4h2v1H8zM14 4h1v1H14zM16 4h5v1H16zM22 4h1v1H22zM24 4h3v1H24zM28,4 h1v1H28zM0 5h1v1H0zM6 5h1v1H6zM11 5h3v1H11zM17 5h1v1H17zM22 5h1v1H22zM28,5 h1v1H28zM0 6h7v1H0zM8 6h1v1H8zM10 6h1v1H10zM12 6h1v1H12zM14 6h1v1H14zM16 6h1v1H16zM18 6h1v1H18zM20 6h1v1H20zM22,6 h7v1H22zM10 7h2v1H10zM15 7h1v1H15zM19 7h2v1H19zM0 8h2v1H0zM5 8h3v1H5zM9 8h1v1H9zM11 8h1v1H11zM15 8h3v1H15zM20 8h1v1H20zM24 8h2v1H24zM0 9h1v1H0zM2 9h1v1H2zM5 9h1v1H5zM7 9h3v1H7zM12 9h4v1H12zM18 9h2v1H18zM21 9h1v1H21zM23 9h2v1H23zM26 9h2v1H26zM1 10h1v1H1zM3 10h1v1H3zM6 10h1v1H6zM8 10h1v1H8zM10 10h1v1H10zM13 10h4v1H13zM20 10h1v1H20zM23 10h2v1H23zM5 11h1v1H5zM7 11h1v1H7zM9 11h1v1H9zM12 11h2v1H12zM16 11h1v1H16zM18 11h4v1H18zM25 11h1v1H25zM2 12h3v1H2zM6 12h4v1H6zM11 12h3v1H11zM15 12h2v1H15zM20 12h1v1H20zM22 12h1v1H22zM28,12 h1v1H28zM1 13h1v1H1zM3 13h1v1H3zM5 13h1v1H5zM8 13h1v1H8zM15 13h2v1H15zM18 13h2v1H18zM21 13h4v1H21zM27,13 h2v1H27zM6 14h2v1H6zM9 14h4v1H9zM15 14h2v1H15zM20 14h2v1H20zM25 14h2v1H25zM0 15h1v1H0zM2 15h2v1H2zM5 15h1v1H5zM7 15h1v1H7zM9 15h1v1H9zM11 15h1v1H11zM15 15h2v1H15zM23 15h1v1H23zM26 15h1v1H26zM28,15 h1v1H28zM2 16h1v1H2zM6 16h2v1H6zM9 16h1v1H9zM11 16h1v1H11zM15 16h5v1H15zM25 16h2v1H25zM0 17h1v1H0zM3 17h2v1H3zM7 17h2v1H7zM10 17h1v1H10zM12 17h9v1H12zM22 17h3v1H22zM26,17 h3v1H26zM0 18h2v1H0zM3 18h2v1H3zM6 18h1v1H6zM8 18h1v1H8zM11 18h1v1H11zM15 18h1v1H15zM17 18h1v1H17zM19 18h1v1H19zM24 18h2v1H24zM28,18 h1v1H28zM0 19h1v1H0zM4 19h2v1H4zM7 19h1v1H7zM10 19h1v1H10zM12 19h2v1H12zM16 19h1v1H16zM19 19h2v1H19zM0 20h1v1H0zM4 20h6v1H4zM12 20h1v1H12zM14 20h1v1H14zM17 20h1v1H17zM19 20h6v1H19zM26,20 h3v1H26zM8 21h2v1H8zM14 21h5v1H14zM20 21h1v1H20zM24 21h2v1H24zM0 22h7v1H0zM8 22h5v1H8zM15 22h2v1H15zM19 22h2v1H19zM22 22h1v1H22zM24 22h3v1H24zM0 23h1v1H0zM6 23h1v1H6zM8 23h1v1H8zM11 23h1v1H11zM14 23h1v1H14zM16 23h1v1H16zM18 23h3v1H18zM24 23h1v1H24zM28,23 h1v1H28zM0 24h1v1H0zM2 24h3v1H2zM6 24h1v1H6zM9 24h1v1H9zM13 24h4v1H13zM19 24h7v1H19zM28,24 h1v1H28zM0 25h1v1H0zM2 25h3v1H2zM6 25h1v1H6zM10 25h1v1H10zM12 25h9v1H12zM25 25h2v1H25zM28,25 h1v1H28zM0 26h1v1H0zM2 26h3v1H2zM6 26h1v1H6zM9 26h2v1H9zM13 26h3v1H13zM18 26h1v1H18zM21 26h7v1H21zM0 27h1v1H0zM6 27h1v1H6zM8 27h2v1H8zM12 27h4v1H12zM21 27h1v1H21zM24 27h3v1H24zM28,27 h1v1H28zM0 28h7v1H0zM8 28h3v1H8zM12 28h1v1H12zM14 28h4v1H14zM19 28h1v1H19zM21 28h6v1H21z"></path></svg>