<svg width="212" height="215" viewBox="0 0 212 215" fill="none" xmlns="http://www.w3.org/2000/svg">
<path d="M35.8219 101.428H78.5564C86.9198 101.428 94.9406 104.75 100.854 110.664C106.768 116.578 110.091 124.599 110.091 132.962V175.682C110.091 180.966 112.19 186.034 115.926 189.77C119.662 193.507 124.73 195.606 130.014 195.606H188.859C194.143 195.606 199.211 193.507 202.947 189.77C206.684 186.034 208.783 180.966 208.783 175.682V116.851C208.783 111.567 206.684 106.5 202.947 102.763C199.211 99.027 194.143 96.928 188.859 96.928H146.125C137.761 96.928 129.741 93.6056 123.827 87.6918C117.913 81.778 114.591 73.7572 114.591 65.3938V22.6735C114.591 17.3894 112.492 12.3218 108.755 8.58544C105.019 4.84907 99.9512 2.75 94.6671 2.75H35.8219C30.5379 2.75 25.4703 4.84907 21.7339 8.58545C17.9975 12.3218 15.8984 17.3894 15.8984 22.6735V81.5045C15.8984 86.7885 17.9975 91.8561 21.7339 95.5925C25.4703 99.3289 30.5379 101.428 35.8219 101.428Z" fill="#D9D9D9" stroke="black" stroke-width="4.5"/>
<path d="M22.6735 118.526H65.408C73.7714 118.526 81.7922 121.848 87.706 127.762C93.6198 133.676 96.9422 141.696 96.9422 150.06V192.78C96.9422 198.064 99.0412 203.132 102.778 206.868C106.514 210.605 111.582 212.704 116.866 212.704H175.711C180.995 212.704 186.062 210.605 189.799 206.868C193.535 203.132 195.634 198.064 195.634 192.78V133.949C195.634 128.665 193.535 123.597 189.799 119.861C186.062 116.125 180.995 114.026 175.711 114.026H132.976C124.613 114.026 116.592 110.703 110.678 104.789C104.764 98.8757 101.442 90.8548 101.442 82.4915V39.7711C101.442 34.4871 99.3431 29.4195 95.6067 25.6831C91.8703 21.9467 86.8027 19.8477 81.5187 19.8477H22.6735C17.3894 19.8477 12.3218 21.9467 8.58545 25.6831C4.84907 29.4195 2.75 34.4871 2.75 39.7711V98.6021C2.75 103.886 4.84907 108.954 8.58545 112.69C12.3218 116.427 17.3894 118.526 22.6735 118.526Z" fill="#000477" stroke="black" stroke-width="4.5"/>
</svg>
